<svg version="1.1" xmlns="http://www.w3.org/2000/svg" style="display: block;" viewBox="0 0 2048 2048" width="1024" height="1024">
<defs>
	<linearGradient id="Gradient1" gradientUnits="userSpaceOnUse" x1="870.929" y1="747.128" x2="779.301" y2="695.266">
		<stop class="stop0" offset="0" stop-opacity="1" stop-color="rgb(0,0,14)"/>
		<stop class="stop1" offset="1" stop-opacity="1" stop-color="rgb(3,2,39)"/>
	</linearGradient>
	<linearGradient id="Gradient2" gradientUnits="userSpaceOnUse" x1="855.24" y1="766.76" x2="893.797" y2="767.241">
		<stop class="stop0" offset="0" stop-opacity="1" stop-color="rgb(1,0,8)"/>
		<stop class="stop1" offset="1" stop-opacity="1" stop-color="rgb(4,8,35)"/>
	</linearGradient>
	<linearGradient id="Gradient3" gradientUnits="userSpaceOnUse" x1="614.864" y1="1496.83" x2="1556.93" y2="1135.49">
		<stop class="stop0" offset="0" stop-opacity="1" stop-color="rgb(0,0,4)"/>
		<stop class="stop1" offset="1" stop-opacity="1" stop-color="rgb(5,3,25)"/>
	</linearGradient>
</defs>
<path transform="translate(0,0)" fill="transparent" d="M 0 0 L 2048 0 L 2048 2048 L 0 2048 L 0 0 z"/>
<path transform="translate(0,0)" fill="rgb(0,0,8)" d="M 757.253 763.821 C 757.654 762.997 758.32 762.238 758.862 761.498 L 764.012 761.011 C 764.766 765.267 765.041 770.088 767.6 773.671 L 768.976 774.101 L 771.089 772.31 L 772.149 773.12 C 769.983 777.1 769.017 781.633 767.807 785.978 C 761.835 779.359 759.239 772.314 757.253 763.821 z"/>
<path transform="translate(0,0)" fill="rgb(10,1,53)" d="M 938.055 338.704 C 938.871 339.014 940.317 339.524 941.023 339.977 C 942.765 341.095 943.347 342.283 943.67 344.251 C 944.72 350.649 940.445 359.254 937.011 364.455 L 935.482 364.466 C 934.35 363.747 933.133 363.377 932.653 362.038 C 930.412 355.787 935.589 344.601 938.055 338.704 z"/>
<path transform="translate(0,0)" fill="rgb(10,1,53)" d="M 1260.98 395.415 C 1263.25 395.081 1265.63 395.074 1267.92 395.158 C 1271.49 395.289 1272.96 396.129 1275.31 398.746 L 1275.02 400.492 C 1268.93 406.199 1252.88 406.557 1244.88 407.28 C 1240.66 407.793 1234.84 409.263 1231.34 406.542 C 1231.11 404.078 1230.72 402.852 1232.64 400.893 C 1237.63 395.806 1254.02 396.027 1260.98 395.415 z"/>
<path transform="translate(0,0)" fill="rgb(10,1,53)" d="M 820.628 394.452 C 822.121 394.41 823.683 394.545 825.159 394.76 C 828.584 395.257 830.397 397.223 832.406 399.842 C 832.449 401.057 832.852 402.031 831.938 402.982 C 825.95 409.204 800.35 406.511 791.749 406.838 C 788.648 407.087 785.173 407.175 782.411 405.581 C 780.793 404.647 781.038 404.124 780.551 402.485 C 781.021 401.391 781.036 401.167 781.918 400.149 C 787.821 393.333 811.955 394.835 820.628 394.452 z"/>
<path transform="translate(0,0)" fill="rgb(10,1,53)" d="M 929.884 381.27 C 931.801 382.05 933.18 382.983 934.913 384.11 C 935.784 385.361 936.156 386.26 936.212 387.803 C 936.739 402.312 933.319 418.016 932.182 432.607 C 931.454 441.959 932.239 451.944 930.906 461.134 C 930.482 464.054 929.7 464.649 927.772 466.788 C 925.089 465.127 923.635 463.951 922.734 460.818 C 918.668 446.691 922.799 395.073 929.884 381.27 z"/>
<path transform="translate(0,0)" fill="url(#Gradient1)" d="M 757.253 763.821 A 103.386 103.386 0 0 1 756.223 752.819 C 755.486 734.161 763.088 716.988 775.686 703.473 C 794.124 683.694 820.883 672.866 847.729 672.197 C 870.107 671.64 886.309 677.438 902.628 692.858 C 903.604 694.407 903.522 693.645 903.29 695.058 C 901.317 697.94 900.152 699.758 899.798 703.271 L 897.896 702.662 C 896.549 704.218 895.625 705.748 894.641 707.553 C 893.718 698.538 896.598 695.311 888.75 689.231 C 874.891 678.493 853.222 677.707 836.588 680.365 C 813.381 684.072 790.075 696.202 776.175 715.54 A 66.619 66.619 0 0 0 764.012 761.011 L 758.862 761.498 C 758.32 762.238 757.654 762.997 757.253 763.821 z"/>
<path transform="translate(0,0)" fill="rgb(10,1,53)" d="M 1592.05 366.416 C 1593.35 367.013 1594.36 367.219 1595.24 368.432 C 1599.83 374.8 1594.46 404.414 1593.38 413.454 C 1598.99 399.743 1606.84 381.936 1618.25 372.011 C 1621.54 369.148 1625.33 366.833 1629.82 367.333 C 1633.34 367.724 1636.06 368.801 1638.24 371.53 C 1637.08 376.944 1625.96 380.032 1621.85 383.865 C 1617.79 387.65 1614.39 393.466 1611.16 398.041 C 1604.53 408.082 1593.46 425.633 1592.95 437.802 C 1592.68 444.222 1594.22 452.557 1592.57 458.726 C 1591.81 461.547 1591.13 461.84 1588.84 463.358 L 1586.54 462.632 C 1583.25 458.489 1582.87 454.115 1582.51 448.961 C 1581.36 432.27 1582.07 377.957 1592.05 366.416 z"/>
<path transform="translate(0,0)" fill="rgb(10,1,53)" d="M 1553.24 366.997 C 1555.55 366.879 1558.3 366.575 1560.5 367.447 C 1563.73 368.727 1565.97 370.51 1567.21 373.821 C 1569.23 379.24 1566.04 387.347 1563.6 392.123 C 1558.03 402.987 1550.05 410.914 1538.38 414.598 C 1538.46 424.537 1537.88 443.394 1544.57 451.291 C 1546.14 453.141 1548.04 454.51 1550.54 454.406 C 1559.19 454.047 1564.21 444.002 1569.82 438.688 C 1572.07 436.565 1574.04 435.671 1577.08 435.729 C 1578.29 438.191 1577.84 438.004 1577.16 440.49 C 1572.57 449.091 1566.24 458.768 1557.5 463.536 C 1553.49 465.722 1549.02 466.478 1544.66 464.925 C 1539.29 463.015 1535.55 458.084 1533.2 453.103 C 1525.58 436.98 1525.51 409.154 1531.44 392.452 C 1535.64 380.606 1541.95 372.547 1553.24 366.997 z"/>
<path transform="translate(0,0)" fill="rgb(255,254,254)" d="M 1556.6 375.715 C 1557.35 376.153 1558.11 376.998 1558.75 377.585 C 1558.93 379.031 1559.04 379.295 1558.83 380.915 C 1557.74 389.449 1547.15 399.364 1540.64 404.423 L 1540.11 404.494 L 1539.18 403.528 C 1539.46 401.567 1539.78 399.604 1540.29 397.688 C 1542.92 387.848 1547.79 380.967 1556.6 375.715 z"/>
<path transform="translate(0,0)" fill="rgb(10,1,53)" d="M 1198.15 366.012 C 1200.44 366.313 1203 366.608 1205.05 367.705 C 1208.7 369.664 1211.58 373.021 1212.6 377.043 C 1214.04 382.741 1210.9 390.642 1208.03 395.449 C 1201.76 405.957 1192.64 412.393 1181.01 415.387 C 1180.38 423.806 1179.92 432.149 1181.29 440.533 C 1182.07 445.32 1182.76 449.353 1186.9 452.288 C 1200.17 454.709 1207.45 434.001 1218.42 431.663 C 1220.86 432.618 1221.43 432.712 1222.97 434.777 C 1217.49 445.166 1206.51 457.21 1195.56 461.631 C 1191.26 463.366 1186.35 464.17 1181.99 462.177 C 1177.59 460.167 1174.87 455.863 1173.22 451.481 C 1166.15 432.706 1169.53 405.158 1177.88 387.275 C 1182.29 377.843 1188.11 369.726 1198.15 366.012 z"/>
<path transform="translate(0,0)" fill="rgb(255,254,254)" d="M 1200.73 375.725 C 1201.18 376.174 1201.71 376.56 1202.09 377.071 C 1203.6 379.105 1203.84 382.102 1203.28 384.503 C 1201.31 392.998 1190.67 400.493 1183.86 405.209 C 1183.3 404.953 1182.94 404.395 1182.51 403.96 C 1182.5 402.548 1182.43 402.251 1182.81 400.675 C 1185.1 391.179 1192.9 381.075 1200.73 375.725 z"/>
<path transform="translate(0,0)" fill="rgb(10,1,53)" d="M 1467.25 359.066 C 1470.6 359.072 1474.07 358.95 1477.06 360.74 C 1480.26 362.656 1482.49 368.062 1483.09 371.631 C 1483.6 374.676 1482.94 376.042 1481.21 378.335 C 1476.66 377.455 1474.17 371.625 1469.35 370.634 C 1467.17 370.185 1465.47 370.536 1463.61 371.657 C 1459.75 373.978 1456.66 379.725 1455.64 383.978 C 1452.15 398.467 1467.83 412.752 1474.63 424.467 L 1476.84 428.285 C 1478.02 430.314 1479.31 430.501 1481.36 431.49 C 1482.22 433.377 1481.91 434.6 1481.2 436.513 C 1474.15 455.555 1489.65 468.922 1468.9 495.35 C 1466.3 497.749 1463.21 500.439 1459.69 501.29 C 1456.43 502.08 1451.98 501.033 1449.32 498.989 C 1447.11 497.283 1445.88 494.876 1445.49 492.152 C 1442.89 474.246 1459.41 453.264 1469.57 439.859 C 1463.09 422.74 1455.18 416.776 1448.31 402.692 C 1444.52 394.932 1443.66 386.086 1446.86 377.955 C 1450.38 369.018 1458.76 362.876 1467.25 359.066 z"/>
<path transform="translate(0,0)" fill="rgb(255,254,254)" d="M 1471.66 448.966 C 1473.48 457.893 1471.88 471.147 1468.48 479.468 C 1465.63 486.437 1462.07 490.454 1455.1 493.197 C 1454.38 491.532 1453.67 489.913 1453.34 488.119 C 1450.97 475.019 1464.52 459.197 1471.66 448.966 z"/>
<path transform="translate(0,0)" fill="rgb(10,1,53)" d="M 1526.22 252.57 C 1527.74 253.519 1529.18 254.414 1530.28 255.877 C 1535.55 262.866 1528.95 281.832 1527.15 289.778 C 1543.11 290.404 1560.66 291.142 1576.2 294.738 C 1578.84 295.349 1582.2 296.108 1583.68 298.503 L 1582.55 300.269 C 1580.54 301.334 1578.76 302.263 1576.46 302.44 C 1571.28 302.836 1565.39 301.418 1560.19 300.985 A 548.899 548.899 0 0 0 1525.53 298.93 C 1515.74 352.884 1507.99 407.108 1509.04 462.012 C 1508.76 462.126 1508.48 462.258 1508.18 462.354 C 1505.46 463.245 1503.42 463.247 1500.92 461.868 C 1491.52 446.515 1509.67 323.074 1514.6 298.604 C 1505.27 298.895 1467.77 301.763 1462.18 297.539 C 1462.36 295.662 1462.02 295.122 1463.66 293.715 C 1468.62 289.449 1508.46 289.903 1516.72 289.777 C 1518.24 277.306 1519.8 263.614 1526.22 252.57 z"/>
<path transform="translate(0,0)" fill="rgb(10,1,53)" d="M 973.571 387.253 C 975.322 382.741 976.772 375.341 981.457 373.018 C 982.842 372.331 983.532 373.062 984.852 373.581 C 991.261 382.111 992.008 398.159 994.686 408.58 C 997.178 402.254 999.571 395.159 1003.19 389.4 C 1005.6 385.56 1009.3 381.321 1014.13 380.839 C 1016.67 380.585 1018.47 381.554 1020.31 383.197 C 1031.38 393.067 1031.47 443.762 1031.4 459.292 C 1031.38 463.238 1031.47 468.241 1028.49 471.211 L 1026.66 471.023 C 1018.43 461.753 1019.43 410.973 1016.4 396.027 L 1014.51 392.745 L 1012.87 392.811 C 1004.7 400.799 1003.41 419.505 998.593 430.026 C 996.929 433.663 995.345 436.334 991.577 437.731 C 991.297 437.579 990.998 437.459 990.738 437.277 C 985.165 433.376 982.691 397.747 980.293 388.548 A 442.571 442.571 0 0 0 968.872 431.846 C 966.936 440.912 965.855 451.233 962.884 459.951 C 962.124 462.183 961.126 463.486 959.229 464.834 C 957.714 464.448 957.162 464.68 956.254 463.245 C 954.477 460.437 954.154 456.867 954.15 453.609 C 954.143 445.397 956.025 436.703 957.019 428.533 C 959.312 409.685 960.718 390.211 965.426 371.803 C 967.843 372.104 969.47 372.438 971.625 373.59 C 972.884 375.446 973.138 376.509 973.136 378.684 C 973.134 381.575 973.322 384.375 973.571 387.253 z"/>
<path transform="translate(0,0)" fill="rgb(10,1,53)" d="M 1409.03 366.935 C 1411.15 366.824 1413.39 366.662 1415.49 366.966 C 1420.07 367.629 1424.95 371.395 1427.65 375.001 C 1436.26 386.502 1434.78 407.047 1432.35 420.47 C 1429.65 435.439 1423.08 452.384 1410.17 461.25 C 1408.29 461.502 1406.29 461.744 1404.39 461.466 C 1399.31 460.724 1394.74 456.899 1392.15 452.627 C 1383.52 438.432 1385.74 413.734 1389.76 398.309 C 1392.99 385.879 1397.5 373.741 1409.03 366.935 z"/>
<path transform="translate(0,0)" fill="rgb(255,254,254)" d="M 1411.62 377.613 C 1413.75 378.124 1415.54 378.504 1417.23 379.988 C 1421.33 383.59 1422.79 389.371 1423.23 394.595 C 1424.81 413.561 1419.66 436.794 1407.14 451.411 C 1406.91 451.47 1406.7 451.583 1406.47 451.588 C 1404.78 451.625 1404.33 451.298 1403.14 450.089 C 1397.43 444.296 1397.03 430.738 1397.04 422.94 C 1397.06 407.687 1400.42 388.658 1411.62 377.613 z"/>
<path transform="translate(0,0)" fill="rgb(10,1,53)" d="M 909.583 228.259 C 916.123 227.957 922.065 227.978 927.37 232.311 C 932.951 236.869 935.268 243.521 935.943 250.513 C 938.018 271.997 929.276 292.874 921.117 312.159 C 918.754 317.742 916.299 324.923 912.23 329.477 C 910.12 331.839 908.186 332.191 905.16 332.191 C 903.072 330.318 902.749 329.313 903.481 326.398 C 904.951 320.542 910.195 313.68 913 308.142 C 920.496 293.345 930.191 264.583 926.639 248.079 C 925.897 244.629 924.193 241.639 921.12 239.785 C 917.093 237.355 912.399 237.513 908.014 238.821 C 892.233 243.529 876.843 260.947 869.415 275.162 C 841.973 327.679 878.669 373.203 894.346 422.274 C 901.181 443.71 905.825 468.055 899.844 490.251 C 897.768 497.956 894.158 506.511 886.696 510.39 C 882.186 512.733 875.542 513.516 870.732 511.692 C 866.5 510.088 860.127 505.935 858.469 501.534 C 857.89 499.998 858.156 500.335 858.911 498.674 C 867.994 494.356 870.15 504.772 878.476 503.154 C 882.142 502.442 884.808 499.401 886.52 496.283 C 890.516 489.006 891.457 479.828 891.703 471.633 C 893.126 424.028 865.321 387.771 853.022 344.061 C 845.849 318.572 848.47 292.981 861.565 269.857 C 872.338 250.834 888.094 234.281 909.583 228.259 z"/>
<path transform="translate(0,0)" fill="rgb(10,1,53)" d="M 1059.73 340.624 C 1061.41 341.558 1062.25 342.327 1063.58 343.666 C 1067.13 352.714 1061.86 388.922 1060.88 401.339 A 288.471 288.471 0 0 1 1067.76 388.283 C 1071.37 381.918 1076.68 374.459 1084.25 372.687 C 1087.5 371.926 1090.68 372.41 1093.4 374.389 C 1098.46 378.063 1100.53 385.114 1101.36 390.997 C 1103.85 408.584 1098.23 429.667 1087.27 443.645 C 1078.72 454.551 1069.09 458.483 1055.76 459.871 L 1055.09 471.921 C 1054.84 481.586 1054.08 528.211 1051.12 533.64 C 1050.28 535.193 1050.4 534.71 1048.46 535.256 L 1046.2 533.913 C 1045.33 532.537 1044.8 531.312 1044.47 529.71 C 1039.23 504.257 1047.51 455.936 1049.46 428.495 C 1051.31 402.572 1050.85 375.365 1055.94 349.867 C 1056.65 346.29 1057.66 343.629 1059.73 340.624 z"/>
<path transform="translate(0,0)" fill="rgb(255,254,254)" d="M 1082.15 382.632 C 1083.16 382.588 1084.98 382.366 1086.02 382.628 C 1088.28 383.2 1089.3 384.155 1090.59 386.038 C 1094.78 392.156 1092.55 402.759 1091.11 409.564 C 1087.6 426.192 1079.23 440.227 1064.87 449.627 C 1062.62 450.964 1060.26 452.066 1057.91 453.211 L 1057.03 452.469 C 1056.88 428.787 1066.71 400.556 1082.15 382.632 z"/>
<path transform="translate(0,0)" fill="rgb(10,1,53)" d="M 549.197 439.318 L 549.565 438.412 C 558.325 416.267 566.413 375.383 590.128 363.783 C 592.29 362.725 594.655 362 597.061 361.863 L 599.182 362.794 C 599.801 364.867 600.102 366.274 598.98 368.266 C 595.711 374.07 587.57 379.067 583.185 384.345 C 570.883 399.15 560.893 431.496 559.038 450.686 C 573.762 435.498 584.55 413.817 592.336 394.181 C 594.727 388.151 595.52 374.655 599.551 370.432 C 601.144 368.763 601.962 368.57 604.18 368.491 C 606.852 370.992 606.875 374.449 606.957 377.902 C 607.129 385.225 605.852 392.475 605.518 399.776 C 604.948 412.239 605.115 424.838 605.473 437.306 C 605.698 445.114 609.285 469.125 606.847 474.419 L 604.881 475.793 C 601.256 474.032 600.12 471.163 598.823 467.451 C 593.008 450.814 594.878 430.267 595.304 412.842 C 588.818 426.678 576.213 456.884 560.276 462.073 C 558.153 462.764 556.733 462.561 554.695 461.808 C 551.692 459.161 549.577 455.808 549.19 451.702 C 548.855 448.159 549.261 444.337 549.441 440.784 C 542.571 448.562 534.556 457.018 524.427 460.285 C 519.56 461.855 513.53 462.41 508.947 459.716 C 503.784 456.68 501.403 450.242 500.143 444.691 C 495.595 424.662 502.708 400.448 513.176 383.37 C 516.345 378.201 521.482 369.851 528.011 368.917 C 531.382 368.434 534.577 369.258 537.151 371.567 C 539.353 373.541 540.323 376.478 540.627 379.34 C 541.622 388.736 536.487 400.769 530.72 407.982 C 525.203 414.883 520.748 417.555 512.076 418.432 L 510.603 418.57 C 509.761 427.568 508.882 439.023 511.946 447.693 C 513.032 450.768 514.327 451.851 517.171 453.295 C 527.231 453.722 536.929 441.371 544.526 435.756 C 547.315 436.068 547.502 437.255 549.197 439.318 z"/>
<path transform="translate(0,0)" fill="rgb(255,254,254)" d="M 528.858 378.609 L 530.447 379.796 C 531.192 382.153 531.593 383.876 531.109 386.397 C 529.312 395.752 522.664 404.138 515.004 409.409 L 513.839 408.869 L 513.419 406.694 C 516.453 396.047 521.668 386.952 528.858 378.609 z"/>
<path transform="translate(0,0)" fill="rgb(10,1,53)" d="M 669.961 228.718 C 672.1 228.874 674.057 229.021 676.046 229.891 C 679.936 231.595 682.367 235.137 683.855 238.992 C 693.046 262.806 674.573 308.353 664.413 330.108 C 661.015 337.383 653.482 356.777 646.461 360.114 C 644.409 361.089 642.142 359.031 639.572 359.965 C 635.483 375.128 634.829 442.877 640.066 456.783 L 641.382 457.373 C 642.864 456.712 644.351 456.041 645.862 455.447 C 649.209 454.131 650.861 454.021 654.12 455.517 C 652.549 458.659 650.988 461.735 648.524 464.289 C 646.312 466.582 642.876 468.545 639.577 468.343 C 636.789 468.173 634.866 466.911 633.163 464.772 C 620.341 448.658 628.319 370.986 630.985 349.328 C 634.578 320.141 647.448 246.291 669.961 228.718 z"/>
<path transform="translate(0,0)" fill="rgb(255,254,254)" d="M 672.431 240.542 C 674.58 241.939 675.345 243.057 676.068 245.556 C 682.856 269.019 656.241 327.547 643.952 349.985 L 641.903 350.68 C 641.552 349.885 641.381 349.644 641.314 348.659 C 640.96 343.487 643.314 335.681 644.235 330.474 C 648.4 306.925 656.257 257.314 672.431 240.542 z"/>
<path transform="translate(0,0)" fill="rgb(10,1,53)" d="M 719.26 228.945 C 721.334 228.679 723.398 228.61 725.477 228.88 C 728.259 229.242 730.419 230.84 732.026 233.066 C 736.789 239.663 735.872 250.039 734.81 257.714 C 731.842 279.181 708.234 345.397 690.862 358.384 C 688.314 358.789 686.199 359.071 683.929 360.407 C 677.864 390.527 677.914 442.078 678.031 474.082 C 677.123 476.369 676.595 477.722 674.667 479.299 L 672.737 478.768 C 670.689 476.577 669.734 474.834 668.865 471.947 C 668.712 471.442 668.578 470.932 668.431 470.425 C 661.736 447.404 674.589 348.85 680.374 321.268 C 685.676 295.989 697.352 243.248 719.26 228.945 z"/>
<path transform="translate(0,0)" fill="rgb(255,254,254)" d="M 721.575 238.557 L 723.446 239.184 C 725.127 241.097 725.729 241.804 726.163 244.412 C 729.592 265.012 700.754 330.686 688.095 349.515 L 686.449 350.264 C 686.138 349.422 685.961 349.115 685.954 348.103 C 685.916 342.457 688.432 335.007 689.527 329.353 C 694.978 301.2 702.014 259.887 721.575 238.557 z"/>
<path transform="translate(0,0)" fill="rgb(10,1,53)" d="M 1164.38 230.813 C 1167.26 230.782 1169.98 231.067 1172.46 232.615 C 1176.78 235.316 1179.11 239.983 1179.94 244.891 C 1184.88 273.96 1161.55 329.616 1146.8 355.879 C 1142.18 364.092 1136.62 371.357 1131.31 379.093 C 1130.54 396.523 1125.64 443.186 1130.1 457.064 C 1135.95 460.195 1140.27 450.267 1146.69 451.382 L 1147.99 453.825 C 1145.57 457.878 1142.96 461.464 1139.05 464.228 C 1135.84 466.501 1131.13 468.841 1127.11 467.665 C 1124.69 466.954 1122.95 465.118 1121.8 462.945 C 1111.65 443.898 1125.05 337.334 1129.04 312.606 C 1131.2 299.164 1134.03 285.656 1137.89 272.599 C 1142.66 256.469 1148.85 239.281 1164.38 230.813 z"/>
<path transform="translate(0,0)" fill="rgb(255,254,254)" d="M 1162.58 241.631 L 1166.03 241.764 C 1167.95 243.141 1168.55 243.578 1169.32 245.944 C 1176.65 268.422 1147.29 333.317 1136.55 355.512 L 1134.54 358.141 L 1133.69 356.589 C 1133.41 334.863 1142.92 285.755 1150.44 264.837 C 1153.45 256.46 1157.23 248.765 1162.58 241.631 z"/>
<path transform="translate(0,0)" fill="rgb(10,1,53)" d="M 757.68 367.444 C 759.612 367.797 761.134 368.385 762.92 369.195 C 766.493 374.624 760.327 440.676 758.733 451.663 C 766.479 447.507 787.567 434.969 795.168 434.339 C 797.985 434.105 798.934 434.728 801.072 436.439 L 801.081 438.426 C 792.878 447.435 769.01 457.211 757.305 464.407 C 755.42 486.513 751.288 509.321 744.779 530.485 C 739.13 548.855 729.225 576.582 710.627 585.795 C 706.208 587.984 700.853 588.902 696.151 587.037 C 691.701 585.273 688.76 581.467 687.067 577.107 C 679.896 558.646 688.106 533.7 695.362 516.549 C 707.255 492.226 725.634 472.528 747.896 457.276 A 937.28 937.28 0 0 0 751.255 414.657 C 745.151 428.44 737.335 446.448 722.78 453.315 C 719.954 454.648 716.788 455.364 713.822 453.942 C 710.549 452.372 708.52 448.864 707.166 445.657 C 701.904 433.192 702.503 395.837 708.154 383.447 C 709.286 380.964 710.098 379.902 712.606 378.902 C 720.829 383.236 709.779 431.285 717.618 442.936 C 719.125 443.52 719.249 443.894 720.907 443.334 C 736.488 438.076 746.108 408.273 749.992 393.918 C 752.304 385.369 753.478 375.249 757.68 367.444 z"/>
<path transform="translate(0,0)" fill="rgb(255,254,254)" d="M 744.539 472.741 L 745.451 473.668 C 746.04 487.458 740.507 505.497 736.882 518.96 C 732.875 533.842 721.651 571.017 706.533 578.405 C 703.729 579.775 702.511 579.313 699.64 578.394 C 695.389 571.502 694.719 563.165 695.458 555.267 C 698.559 522.145 719.759 493.382 744.539 472.741 z"/>
<path transform="translate(0,0)" fill="rgb(10,1,53)" d="M 494.657 235.133 C 499.799 235.343 504.803 236.365 509.215 239.154 C 517.441 244.353 521.246 253.291 522.978 262.527 C 528.134 290.029 519.665 318.856 503.825 341.42 C 489.027 362.5 473.112 375.561 447.458 380.19 C 451.907 396.827 457.194 413.202 461.316 429.938 C 466.034 449.091 469.558 468.534 474.585 487.614 C 479.158 504.968 489.022 538.198 505.331 548.604 C 509.264 551.113 514.199 551.762 518.332 554.176 C 519.487 556.244 520.12 557.047 519.091 559.479 C 518.021 562.008 516.847 562.43 514.53 563.44 C 511.464 563.374 509.291 562.883 506.519 561.513 C 486.207 551.473 473.638 524.266 467.285 503.622 C 459.687 478.933 455.417 453.293 449.331 428.214 C 445.099 410.779 438.554 392.901 435.644 375.287 C 435 371.39 434.198 367.958 436.084 364.395 L 437.968 363.947 L 440.934 365.982 C 443.78 367.937 446.143 369.457 449.681 369.742 C 459.096 370.502 469.403 362.297 476.24 356.5 C 493.872 341.551 511.624 314.419 513.356 290.876 C 514.461 275.847 515.224 260.075 504.769 247.943 C 504.218 247.659 503.671 247.366 503.115 247.091 C 499.683 245.395 496.285 245.017 492.72 246.472 C 480.945 251.275 472.04 270.716 466.491 281.376 C 454.517 304.38 437.072 345.783 432.186 370.224 C 427.223 395.053 421.538 545.901 419.429 549.068 C 418.034 551.163 417.288 551.59 414.9 551.827 C 413.993 551.095 413.87 551.096 413.149 549.943 C 405.347 537.467 422.942 343.499 426.117 315.069 C 428.626 292.603 430.288 266.738 437.072 245.106 C 438.134 241.72 439.018 239.854 442.267 238.078 C 444.795 238.296 444.59 238.302 446.246 240.25 C 446.54 241.5 446.82 242.648 446.723 243.947 C 446.055 252.85 443.286 262.543 441.946 271.495 C 439.063 290.754 436.973 310.151 434.758 329.497 C 441.682 311.307 448.362 292.777 457.521 275.56 C 465.865 259.875 476.663 240.633 494.657 235.133 z"/>
<path transform="translate(0,0)" fill="rgb(10,1,53)" d="M 1367.17 239.105 C 1371.75 238.478 1375.85 238.265 1380.13 240.328 C 1385.49 242.908 1388.99 247.297 1390.98 252.838 C 1399.17 275.658 1390.41 308.062 1380.39 328.999 C 1365.7 359.7 1349.65 371.093 1318.55 381.873 C 1322.36 395.276 1327.34 408.409 1331.51 421.717 C 1340.68 450.9 1349.07 481.443 1363.01 508.789 C 1366.52 515.661 1370.85 524.406 1376.08 530.082 C 1380.2 534.554 1390.98 542.435 1392.72 547.967 L 1390.59 549.598 C 1386.62 549.856 1383.83 548.668 1380.44 546.629 C 1346.3 526.079 1318.79 422.293 1308.19 382.728 L 1306.87 380.293 C 1306.47 380.435 1305.94 380.392 1305.66 380.72 C 1302.54 384.389 1298.78 471.738 1298.46 482.814 C 1298.1 494.962 1300.77 526.795 1295.16 536.061 L 1292.24 535.249 C 1288.56 529.505 1287.28 522.498 1286.97 515.78 C 1285.65 487.459 1288 458.512 1289.99 430.257 C 1291.71 405.758 1306.01 252.284 1315.45 242.58 C 1317.61 240.36 1317.89 240.485 1320.84 240.387 C 1324.92 247.388 1313.03 310.914 1311.13 324.862 A 339.721 339.721 0 0 1 1321.63 295.659 C 1330.98 273.061 1343.39 248.879 1367.17 239.105 z"/>
<path transform="translate(0,0)" fill="rgb(255,254,254)" d="M 1370.56 248.001 C 1372.17 248.12 1373.93 248.143 1375.4 248.899 C 1378.36 250.419 1380.05 254.233 1381.04 257.232 C 1388.03 278.517 1377.86 311.449 1367.66 330.389 C 1356.17 351.718 1341.82 363.398 1318.66 370.267 C 1315.73 370.786 1312.08 371.265 1309.23 370.247 C 1307.97 369.798 1307.75 369.539 1307.39 368.015 C 1304.64 356.359 1328.91 298.15 1335.54 285.513 C 1343.02 271.225 1354.42 253.122 1370.56 248.001 z"/>
<path transform="translate(0,0)" fill="rgb(201,135,95)" d="M 764.012 761.011 A 66.619 66.619 0 0 1 776.175 715.54 C 790.075 696.202 813.381 684.072 836.588 680.365 C 853.222 677.707 874.891 678.493 888.75 689.231 C 896.598 695.311 893.718 698.538 894.641 707.553 C 895.625 705.748 896.549 704.218 897.896 702.662 L 899.798 703.271 C 900.152 699.758 901.317 697.94 903.29 695.058 C 906.778 702.558 907.177 711.033 910.627 718.628 C 912.438 720.436 913.496 721.748 914.636 724.034 C 917.812 730.4 930.523 740.8 930.583 747.165 L 929.687 746.278 C 925.902 742.464 924.046 736.585 919.059 734.949 C 916.823 736.143 916.109 738.35 915.053 740.526 C 913.444 741.405 912.806 741.26 912.206 743.098 C 910.432 748.533 912.439 757.014 912.287 762.882 C 911.898 777.892 895.434 795.331 883.169 802.34 C 866.968 811.598 846.417 813.725 828.528 808.629 A 61.0644 61.0644 0 0 1 790.832 778.28 C 788.584 774.066 787.006 769.403 785.511 764.878 C 780.601 767.306 776.398 769.606 772.149 773.12 L 771.089 772.31 L 768.976 774.101 L 767.6 773.671 C 765.041 770.088 764.766 765.267 764.012 761.011 z"/>
<path transform="translate(0,0)" fill="rgb(0,0,8)" d="M 874.718 693.428 C 882.364 693.693 886.978 695.251 893.558 698.882 C 883.931 697.225 875.171 696.689 865.464 697.963 C 841.819 701.067 821.991 714.104 807.619 732.882 C 804.35 738.082 801.462 743.472 798.542 748.873 C 801.504 738.053 805.948 729.28 813.49 720.991 C 830.319 702.497 850.187 694.753 874.718 693.428 z"/>
<path transform="translate(0,0)" fill="url(#Gradient2)" d="M 895.355 740.86 L 892.033 744.97 L 892.298 745.75 C 893.975 745.254 895.517 744.804 897.109 744.071 C 895.721 757.438 891.463 769.067 880.714 777.76 C 872.148 784.687 856.812 791.216 845.563 788.957 C 844.235 788.691 844.246 788.64 843.198 788.171 L 842.961 786.965 C 845.023 786.291 846.719 786.148 848.851 785.993 C 859.808 785.197 874.105 777.351 881.069 768.974 C 886.277 762.71 888.8 755.604 891.497 748.062 C 888.499 749.925 885.355 752.332 882.009 753.444 L 882.356 752.027 C 884.197 750 885.987 748.942 888.354 747.662 C 889.774 746.894 889.095 747.5 890.084 745.733 C 888.684 745.422 888.334 744.975 887.187 745.789 C 884.272 747.86 883.708 749.951 879.674 749.937 C 879.141 749.935 878.61 749.871 878.077 749.838 C 883.705 746.596 889.25 743.137 895.355 740.86 z"/>
<path transform="translate(0,0)" fill="rgb(10,1,53)" d="M 903.29 695.058 C 906.778 702.558 907.177 711.033 910.627 718.628 C 912.438 720.436 913.496 721.748 914.636 724.034 C 917.812 730.4 930.523 740.8 930.583 747.165 L 929.687 746.278 C 925.902 742.464 924.046 736.585 919.059 734.949 C 916.823 736.143 916.109 738.35 915.053 740.526 C 913.444 741.405 912.806 741.26 912.206 743.098 C 910.432 748.533 912.439 757.014 912.287 762.882 C 911.898 777.892 895.434 795.331 883.169 802.34 C 866.968 811.598 846.417 813.725 828.528 808.629 A 61.0644 61.0644 0 0 1 790.832 778.28 C 788.584 774.066 787.006 769.403 785.511 764.878 C 780.601 767.306 776.398 769.606 772.149 773.12 L 771.089 772.31 C 772.921 769.388 775.751 766.997 777.751 764.107 C 781.491 758.702 783.983 752.408 786.614 746.415 C 792.759 759.058 793.679 772.784 803.158 783.974 C 812.799 795.355 826.885 801.606 841.565 802.812 C 857.991 804.162 876.04 799.597 888.502 788.536 C 897.759 780.32 905.28 767.945 905.715 755.367 C 905.841 751.708 905.37 746.974 902.506 744.368 C 901.203 743.182 898.792 743.927 897.109 744.071 C 895.517 744.804 893.975 745.254 892.298 745.75 L 892.033 744.97 L 895.355 740.86 C 889.25 743.137 883.705 746.596 878.077 749.838 C 878.61 749.871 879.141 749.935 879.674 749.937 C 883.708 749.951 884.272 747.86 887.187 745.789 C 888.334 744.975 888.684 745.422 890.084 745.733 C 889.095 747.5 889.774 746.894 888.354 747.662 C 885.987 748.942 884.197 750 882.356 752.027 L 882.009 753.444 A 55.4981 55.4981 0 0 1 870.203 759.88 C 863.665 762.458 852.458 764.163 845.939 760.676 C 843.669 759.461 842.313 758.233 841.788 755.621 C 841.055 751.977 842.631 747.789 844.56 744.746 C 849.442 737.045 858.674 733.25 867.248 731.434 C 880.595 728.607 892.895 730.101 904.364 737.566 C 900.778 727.644 896.983 717.861 894.641 707.553 C 895.625 705.748 896.549 704.218 897.896 702.662 L 899.798 703.271 C 900.152 699.758 901.317 697.94 903.29 695.058 z"/>
<path transform="translate(0,0)" fill="rgb(255,254,254)" d="M 903.29 695.058 C 906.778 702.558 907.177 711.033 910.627 718.628 C 911.873 722.241 914.009 725.864 914.964 729.475 C 915.579 731.799 914.981 733.28 913.79 735.202 L 911.616 734.959 C 905.088 728.398 904.166 713.434 900.503 704.877 L 899.798 703.271 C 900.152 699.758 901.317 697.94 903.29 695.058 z"/>
<path transform="translate(0,0)" fill="rgb(201,135,95)" d="M 878.077 749.838 C 872.543 752.197 861.452 758.384 855.509 756.698 C 852.843 755.941 852.509 755.343 851.172 753.127 C 851.061 750.42 851.463 749.022 853.076 746.79 C 857.56 740.581 867.578 738.003 874.715 737.151 C 880.062 736.513 891.526 735.387 895.816 738.708 L 895.355 740.86 C 889.25 743.137 883.705 746.596 878.077 749.838 z"/>
<path transform="translate(0,0)" fill="rgb(80,139,146)" d="M 345.156 359.699 C 346.609 359.624 348.087 359.595 349.539 359.679 C 353.137 359.885 355.435 361.238 357.838 363.881 C 361.06 372.101 351.937 379.62 347.074 385.601 C 301.988 441.048 261.668 514.423 234.079 580.391 A 846.153 846.153 0 0 0 235.525 1223.16 A 841.653 841.653 0 0 0 699.358 1688.36 C 706.456 1691.32 713.459 1693.67 716.356 1701.57 A 13.6799 13.6799 0 0 1 715.71 1712.59 C 713.428 1717.07 710.222 1718.55 705.599 1719.96 C 682.27 1716.4 657.765 1703.21 636.512 1693.26 A 840.059 840.059 0 0 1 333.968 1451.42 A 874.958 874.958 0 0 1 149.517 807.356 A 860.645 860.645 0 0 1 297.839 417.723 C 310.161 400.284 328.811 372.652 345.156 359.699 z"/>
<path transform="translate(0,0)" fill="rgb(80,139,146)" d="M 1004.38 34.5 C 1146.34 26.8419 1307.79 65.3303 1433.22 131.216 A 897.572 897.572 0 0 1 1871 653.493 A 865.766 865.766 0 0 1 1805.54 1312 A 858.779 858.779 0 0 1 1445.78 1675.85 A 822.173 822.173 0 0 1 1368.45 1712.3 C 1362.2 1714.86 1356.07 1718.48 1349.6 1720.31 C 1345.45 1721.49 1339.54 1721.9 1335.85 1719.17 C 1332.5 1716.69 1329.34 1710.83 1329.39 1706.61 C 1329.51 1695.39 1350.89 1689.28 1359.42 1685.57 C 1373.77 1679.32 1388.48 1673.48 1402.57 1666.66 A 829.029 829.029 0 0 0 1634.71 1497.05 A 856.794 856.794 0 0 0 1781.08 1290.89 A 841.073 841.073 0 0 0 1837.72 653.722 A 860.033 860.033 0 0 0 1415.3 156.391 C 1209.52 50.2156 958.375 29.1809 740.445 111.084 C 693.313 128.798 649.408 149.884 606.207 175.65 C 599.684 179.541 590.017 187.179 582.837 188.697 C 579.653 189.37 576.918 188.808 574.31 186.925 C 571.909 185.192 569.869 182.685 569.778 179.598 C 569.661 175.629 572.205 171.899 574.812 169.133 C 587.692 155.465 623.251 137.793 640.507 129.033 C 665.811 116.187 691.024 103.833 717.381 93.1985 C 808.076 56.6058 906.887 37.8349 1004.38 34.5 z"/>
<path transform="translate(0,0)" fill="url(#Gradient3)" d="M 902.628 692.858 C 902.711 692.25 902.799 691.643 902.875 691.035 C 903.794 683.687 902.993 676.034 903.67 668.584 C 905.805 645.12 918.421 626.578 936.617 612.163 C 977.094 580.097 1031.6 568.947 1081.87 563.838 C 1095.95 562.407 1110.11 560.595 1124.25 562.287 C 1131.69 563.178 1141.15 564.697 1146.1 570.92 C 1148.1 573.428 1149.06 576.48 1150.05 579.471 C 1151.32 583.256 1152.2 583.976 1155.77 585.714 C 1160.29 587.918 1165.28 589.459 1169.61 592.007 C 1178.91 597.489 1187.69 608.846 1191.19 618.801 C 1196.59 634.146 1193.8 651.611 1186.5 665.868 C 1182.09 674.487 1175.9 680.692 1170.24 688.322 C 1175.61 719.685 1174.95 750.329 1155.96 777.209 C 1143.08 795.447 1123.91 808.294 1101.79 811.963 C 1086.9 814.432 1073.69 812.572 1059.02 810.156 C 1056.68 813.816 1058.66 820.186 1059.5 824.271 C 1065.2 828.673 1070.17 832.228 1073.92 838.492 C 1123.11 855.258 1161.67 914.001 1183.75 959.152 C 1184.79 961.266 1185.64 963.388 1186.41 965.614 C 1184.16 970.709 1181.55 975.042 1178.45 979.644 A 2027.16 2027.16 0 0 0 1199.65 1042.8 C 1218.59 1014.07 1236.54 984.615 1254.54 955.293 C 1263.88 940.08 1272.83 924.347 1282.98 909.68 C 1287.53 909.914 1292.12 910.013 1296.65 910.442 C 1304.04 897.806 1311.25 884.573 1320.84 873.437 C 1343.02 879.955 1411.99 904.671 1430.59 904.091 C 1434.25 903.977 1438.46 901.983 1441.57 900.196 C 1448.77 896.062 1455.38 888.335 1463.11 885.665 L 1464.05 886.356 C 1465.61 904.664 1465.47 923.053 1467.1 941.386 C 1459.49 949.052 1452.94 957.941 1446.12 966.308 C 1427.12 989.587 1408.45 1015.11 1387.32 1036.35 C 1394.87 1042.82 1399.2 1050.59 1399.85 1060.63 C 1400.81 1075.47 1393.77 1090.03 1383.82 1100.68 C 1373.81 1111.4 1360.49 1119.11 1345.56 1119.32 L 1343.86 1119.33 A 1092.17 1092.17 0 0 0 1318.1 1158.84 A 690.673 690.673 0 0 1 1274.03 1151.35 C 1256.83 1169.06 1221.19 1201.06 1195.84 1201.09 C 1180.9 1201.11 1171.17 1187.94 1161.56 1178.13 C 1168.13 1200.16 1173.48 1222.53 1179.72 1244.65 C 1186.84 1269.9 1194.87 1294.99 1201.05 1320.49 C 1191.7 1329.72 1181.04 1336.03 1169.29 1341.75 C 1159.06 1361.7 1148.05 1380.08 1135.3 1398.5 A 30671.5 30671.5 0 0 0 1310.17 1892.34 C 1326.88 1886.67 1342.53 1882.62 1360.27 1881.83 C 1382.84 1854.9 1403.87 1833.89 1440.99 1830.91 C 1454.27 1829.85 1470.63 1831.67 1480.97 1840.74 C 1486.37 1845.47 1489.36 1851.9 1489.54 1859.07 C 1490.05 1879.01 1472.98 1898.33 1459.73 1911.5 C 1429.83 1941.23 1332.49 2004.67 1290.97 2003.74 C 1284.25 2003.59 1279.51 2001.18 1274.92 1996.32 C 1258.07 1978.46 1253.83 1948.05 1245.55 1925.52 C 1227.28 1927.78 1208.26 1928.77 1190.28 1924.02 C 1176.29 1889.38 1163.66 1854.23 1150.08 1819.43 A 4203.44 4203.44 0 0 0 1104.39 1709.35 C 1088.22 1672.02 1071.11 1634.05 1050.57 1598.88 A 5087 5087 0 0 0 942.018 1829.46 A 842.087 842.087 0 0 0 924.985 1872.39 C 922.088 1880.5 919.89 1889.22 916.421 1897.09 C 915.275 1899.68 914.335 1901.8 912.093 1903.64 C 900.977 1907.35 884.685 1902.45 873.277 1900.26 L 867.812 1907.54 C 895.127 1923.82 914.407 1927 941.908 1938 L 943.5 1938.48 C 967.057 1945.41 1002.82 1942.7 1017.04 1967.56 C 1020.42 1973.48 1021.82 1981.44 1020 1988.09 C 1017.55 1997.03 1009.01 2002.93 1001.2 2006.95 C 998.235 2008.47 995.185 2009.68 992.044 2010.78 C 977.938 2020.25 947.468 2019.54 931.4 2017.44 C 886.699 2011.58 811.411 1979.51 783.705 1943.13 C 790.737 1922.02 808.945 1897.39 820.524 1878.07 C 814.002 1872.88 805.866 1866.52 801.45 1859.4 C 796.686 1851.72 804.142 1839.88 807.203 1832.34 A 2716.3 2716.3 0 0 0 899.491 1563.71 C 913.979 1514.85 928.693 1466.26 939.247 1416.35 C 930.625 1400.96 921.356 1384.85 911.205 1370.44 C 906.626 1388.51 902.959 1427.89 886.99 1438.66 C 872.613 1448.35 823.735 1441.5 807.354 1438.07 C 780.291 1432.4 743.225 1417.06 727.945 1392.51 C 720.38 1380.35 723.471 1367.33 726.707 1354.33 C 733.591 1326.66 769.026 1229.66 787.386 1212.48 C 790.78 1209.3 797.8 1207.61 801.987 1205.09 C 807.247 1194.92 809.454 1181.25 813.047 1170.16 C 822.491 1141 835.143 1111.01 840.864 1080.91 C 843.492 1067.08 844.09 1052.51 845.305 1038.48 A 427.573 427.573 0 0 1 836.345 1035.41 C 828.115 1032.48 806.046 1025.96 802.612 1018.7 C 803.456 1006.16 811.629 991.162 816.494 979.642 C 835.063 935.67 860.267 893.068 899.243 864.293 C 909.43 856.773 922.176 853.158 931.934 845.397 C 950.045 830.991 965.56 813.335 987.639 804.359 C 989.92 797.961 991.594 791.465 993.276 784.889 C 970.759 779.491 946.071 764.29 930.583 747.165 C 930.523 740.8 917.812 730.4 914.636 724.034 C 913.496 721.748 912.438 720.436 910.627 718.628 C 907.177 711.033 906.778 702.558 903.29 695.058 C 903.522 693.645 903.604 694.407 902.628 692.858 z"/>
<path transform="translate(0,0)" fill="rgb(139,192,194)" d="M 812.752 1210.82 C 816.733 1210.8 819.573 1210.37 822.616 1213.19 C 823.844 1217.27 821.977 1222.67 821.123 1226.78 C 819.86 1227.86 818.977 1227.6 817.367 1227.75 L 814.595 1225.28 C 812.817 1220.5 812.902 1215.85 812.752 1210.82 z"/>
<path transform="translate(0,0)" fill="rgb(0,0,8)" d="M 918.621 1225.11 C 919.413 1239 915.353 1251.27 914.054 1264.92 C 912.614 1263.89 913.288 1264.24 911.514 1263.56 C 911.081 1263.4 910.642 1263.25 910.206 1263.09 C 909.154 1261.11 909.202 1259.15 909.463 1256.96 C 910.027 1252.21 913.456 1230.06 915.288 1227.52 C 915.84 1226.76 917.785 1225.72 918.621 1225.11 z"/>
<path transform="translate(0,0)" fill="rgb(139,192,194)" d="M 1156.68 1346.99 L 1157.71 1347.86 C 1155.79 1357.33 1137.69 1382.64 1131.88 1391.81 L 1128.17 1383.64 C 1124.54 1375.23 1120.62 1366.93 1116.84 1358.59 C 1130.68 1355.97 1143.62 1352.23 1156.68 1346.99 z"/>
<path transform="translate(0,0)" fill="rgb(139,192,194)" d="M 1162.69 938.5 C 1169.22 945.327 1173.85 956.743 1178.05 965.272 C 1172.56 977.158 1165.95 987.804 1158.69 998.656 L 1154.13 1005.99 A 338.495 338.495 0 0 1 1150.37 984.869 C 1157.26 969.334 1160.44 955.249 1162.69 938.5 z"/>
<path transform="translate(0,0)" fill="rgb(139,192,194)" d="M 932.951 1055.05 L 948.273 1055.9 C 946.087 1081.78 945.845 1108.78 941.79 1134.38 C 941.317 1137.37 940.951 1138.22 938.51 1139.98 L 925.586 1146.05 C 929.413 1115.98 931.688 1085.32 932.951 1055.05 z"/>
<path transform="translate(0,0)" fill="rgb(0,0,8)" d="M 941.908 1938 L 943.5 1938.48 C 967.057 1945.41 1002.82 1942.7 1017.04 1967.56 C 1020.42 1973.48 1021.82 1981.44 1020 1988.09 C 1017.55 1997.03 1009.01 2002.93 1001.2 2006.95 C 998.235 2008.47 995.185 2009.68 992.044 2010.78 C 996.161 2005.44 1002.83 2005.07 1007.02 1999.87 L 1006.65 1998.37 C 1004.27 1999.87 1001.81 2001.66 999.198 2002.71 C 997.044 2003.59 996.791 2003.32 994.751 2002.47 C 1000.79 1999.32 1008.73 1995.88 1012.12 1989.64 C 1014.6 1985.09 1014.09 1980.75 1012.81 1975.96 C 1010.54 1976.04 999.257 1988.08 996.321 1990 C 980.67 2000.23 957.865 2002.62 939.84 1999.02 C 948.506 1997.73 958.313 1998.29 967.223 1997.43 C 981.425 1996.04 996.712 1990.16 1006.03 1978.83 L 1005.71 1977.42 C 1004.54 1978.6 1003.35 1979.74 1002.07 1980.8 C 986.424 1993.82 964.638 1996.69 945.001 1994.93 L 944.04 1993.36 C 962.892 1994.61 983.673 1992.65 999.215 1980.83 C 1002.61 1978.25 1006.38 1974.4 1006.45 1969.82 C 1006.48 1967.39 1005.31 1965.15 1003.75 1963.36 C 993.54 1951.68 966.406 1948.97 951.971 1947.63 C 942.674 1947.26 935.195 1950.72 927.699 1955.98 L 922.786 1953 C 927.64 1949.18 932.63 1946.3 938.056 1943.38 L 933.146 1942.33 C 934.712 1942.1 936.453 1941.91 937.947 1941.38 C 939.858 1940.71 940.95 1939.76 941.908 1938 z"/>
<path transform="translate(0,0)" fill="rgb(139,192,194)" d="M 809.936 1204.01 C 821.215 1169.42 830.986 1134.25 843.113 1099.94 C 845.02 1127.83 845.865 1132.91 836.744 1159.11 L 838.548 1159.27 L 839.209 1156.57 C 840.471 1159.4 840.796 1162.15 841.216 1165.18 C 836.855 1177.66 832.263 1190.4 829.825 1203.41 L 824.402 1200.9 L 823.677 1203.9 C 820.348 1205.65 813.655 1204.29 809.936 1204.01 z"/>
<path transform="translate(0,0)" fill="rgb(0,0,8)" d="M 836.744 1159.11 L 838.548 1159.27 L 839.209 1156.57 C 840.471 1159.4 840.796 1162.15 841.216 1165.18 C 836.855 1177.66 832.263 1190.4 829.825 1203.41 L 824.402 1200.9 C 826.189 1186.63 831.745 1172.52 836.744 1159.11 z"/>
<path transform="translate(0,0)" fill="rgb(109,162,188)" d="M 936.051 852.27 C 940.264 854.26 944.092 856.871 947.876 859.57 C 977.416 880.646 997.556 915.858 1009.28 949.514 C 1011.64 956.287 1014.46 963.518 1015.48 970.611 C 1016.02 974.392 1015.9 975.9 1013.65 979.007 C 1001.95 951.612 988.804 925.085 971.581 900.651 A 284.336 284.336 0 0 0 945.79 869.315 C 942.351 865.669 934.949 860.504 933.658 855.932 L 936.051 852.27 z"/>
<path transform="translate(0,0)" fill="rgb(255,254,254)" d="M 1173.13 989.539 C 1182.48 1008.67 1187.99 1031.09 1194.38 1051.43 L 1180.54 1073.09 L 1176.33 1063.25 C 1174.59 1058.91 1172.63 1052.56 1168.89 1049.69 L 1167.84 1050.49 L 1167.89 1056.35 C 1163.27 1052.6 1157.79 1021.04 1156.18 1013.21 C 1163.59 1006.39 1168.09 998.102 1173.13 989.539 z"/>
<path transform="translate(0,0)" fill="rgb(255,254,254)" d="M 1378.09 1870.52 C 1391.64 1856.74 1409.86 1843.88 1429.1 1839.88 C 1434.98 1838.66 1452.38 1835.91 1457.44 1839.13 L 1456.55 1839.93 C 1455.84 1843.45 1455.13 1844.81 1452.73 1847.48 C 1451.62 1848.71 1452.11 1848.09 1451.15 1849.77 C 1444.2 1857 1433.65 1862.13 1425.81 1868.7 C 1424.2 1866.68 1422.65 1866.53 1420.26 1865.89 C 1410.9 1874.13 1402.85 1884 1394.66 1893.36 C 1389.9 1884.88 1384.53 1877.82 1378.09 1870.52 z"/>
<path transform="translate(0,0)" fill="rgb(10,1,53)" d="M 1420.26 1865.89 C 1431.65 1856.06 1443.82 1847.86 1456.55 1839.93 C 1455.84 1843.45 1455.13 1844.81 1452.73 1847.48 C 1451.62 1848.71 1452.11 1848.09 1451.15 1849.77 C 1444.2 1857 1433.65 1862.13 1425.81 1868.7 C 1424.2 1866.68 1422.65 1866.53 1420.26 1865.89 z"/>
<path transform="translate(0,0)" fill="rgb(139,192,194)" d="M 1089.74 853.639 C 1116.2 862.186 1146.31 908.973 1160 933.365 C 1157.83 944.071 1155.91 954.884 1152.4 965.246 C 1151.22 968.661 1149.63 971.939 1148.15 975.232 C 1134.49 930.586 1119.67 890.449 1089.74 853.639 z"/>
<path transform="translate(0,0)" fill="rgb(201,135,95)" d="M 1149.98 590.521 C 1155.29 592.678 1160.26 594.826 1164.98 598.169 C 1175.34 605.517 1183.02 616.193 1184.87 628.944 C 1187.49 647.056 1179.33 663.476 1168.94 677.594 C 1167.12 670.725 1165.64 663.737 1164.02 656.818 C 1165.69 648.186 1168.86 631.848 1164.56 623.619 C 1164.29 633.163 1163.66 642.38 1162.42 651.858 C 1155.72 638.626 1149.65 625.339 1138.35 615.353 C 1143.52 607.28 1147.26 599.725 1149.98 590.521 z"/>
<path transform="translate(0,0)" fill="rgb(139,192,194)" d="M 816.969 999.493 C 824.411 1003.81 833.563 1006.56 841.705 1009.32 C 877.256 1021.34 912.793 1028.53 950.292 1030.51 C 949.872 1036.4 949.792 1042.52 948.389 1048.27 L 946.248 1049.17 C 902.047 1048.27 850.392 1036.95 810.899 1016.68 C 812.59 1010.86 814.876 1005.18 816.969 999.493 z"/>
<path transform="translate(0,0)" fill="rgb(255,254,254)" d="M 1451.15 1849.77 C 1457.3 1846.58 1466.14 1840.71 1473.32 1843.7 C 1476.38 1844.98 1479.23 1848.31 1480.28 1851.45 C 1480.68 1852.62 1480.82 1853.87 1480.99 1855.08 L 1480.42 1856.06 C 1455.38 1856.02 1439.92 1869.25 1422.83 1886.17 C 1412.04 1896.84 1402.37 1908.6 1391.67 1919.36 C 1358.63 1952.59 1324.11 1973.85 1281.6 1992.99 C 1278.99 1989.69 1276.49 1986.45 1274.25 1982.87 C 1316.09 1963.52 1353.94 1942.22 1387.03 1909.48 C 1400.38 1896.26 1411.67 1881.12 1425.81 1868.7 C 1433.65 1862.13 1444.2 1857 1451.15 1849.77 z"/>
<path transform="translate(0,0)" fill="rgb(139,192,194)" d="M 845.493 1149.9 C 847.338 1171.27 846.514 1202.67 864.382 1217.8 C 875.514 1227.23 890.159 1229.86 904.281 1228.49 C 903.284 1240.78 901.045 1249.72 892.623 1259.2 C 870.592 1250.4 848.144 1241.78 826.585 1231.9 C 828.263 1225.66 833.83 1210.3 830.39 1204.3 C 830.216 1204 830.013 1203.71 829.825 1203.41 C 832.263 1190.4 836.855 1177.66 841.216 1165.18 L 845.493 1149.9 z"/>
<path transform="translate(0,0)" fill="rgb(255,254,254)" d="M 798.824 1927.81 A 194.781 194.781 0 0 0 804.441 1934.02 C 833.495 1964.59 897.358 1997.85 939.84 1999.02 C 957.865 2002.62 980.67 2000.23 996.321 1990 C 999.257 1988.08 1010.54 1976.04 1012.81 1975.96 C 1014.09 1980.75 1014.6 1985.09 1012.12 1989.64 C 1008.73 1995.88 1000.79 1999.32 994.751 2002.47 C 975.902 2009.57 957.805 2012.1 937.699 2010.29 C 894.883 2006.45 819.628 1974.69 791.76 1941.09 C 793.827 1936.35 796.076 1932.18 798.824 1927.81 z"/>
<path transform="translate(0,0)" fill="rgb(255,254,254)" d="M 1369.63 1041.09 C 1374.28 1040.67 1377.93 1041.04 1382.13 1043.22 C 1386.84 1045.65 1390.08 1048.95 1391.47 1054.16 C 1394.35 1064.92 1390.89 1076.69 1385.27 1085.96 C 1377.79 1098.3 1366.35 1107.37 1352.27 1110.88 C 1348.96 1111.11 1345.77 1111.14 1342.6 1110.03 C 1337.69 1108.3 1333.21 1105.14 1331.22 1100.19 C 1327.99 1092.14 1329.47 1081.44 1332.82 1073.68 C 1339.9 1057.29 1353.59 1047.5 1369.63 1041.09 z"/>
<path transform="translate(0,0)" fill="rgb(255,254,254)" d="M 927.699 1955.98 C 935.195 1950.72 942.674 1947.26 951.971 1947.63 C 966.406 1948.97 993.54 1951.68 1003.75 1963.36 C 1005.31 1965.15 1006.48 1967.39 1006.45 1969.82 C 1006.38 1974.4 1002.61 1978.25 999.215 1980.83 C 983.673 1992.65 962.892 1994.61 944.04 1993.36 C 936.399 1992.68 912.554 1989.82 907.85 1984.72 C 912.115 1972.49 918.358 1964.72 927.699 1955.98 z"/>
<path transform="translate(0,0)" fill="rgb(255,254,254)" d="M 1021.67 984.25 C 1027.14 984.21 1032.35 984.7 1037.36 987.064 C 1046.12 991.205 1052.65 999.096 1055.85 1008.16 A 35.5574 35.5574 0 0 1 1054.46 1035.84 C 1049.71 1045.58 1042.1 1050.32 1032.16 1053.47 C 1024.87 1054.1 1018.82 1053.27 1012.4 1049.52 C 1004.06 1044.64 998.125 1036.1 995.815 1026.79 C 993.513 1017.5 994.666 1007.3 999.732 999.103 C 1004.84 990.833 1012.36 986.325 1021.67 984.25 z"/>
<path transform="translate(0,0)" fill="rgb(255,254,254)" d="M 1323.61 882.896 C 1356.64 889.779 1393.3 908.31 1426.65 911.418 C 1440.2 912.681 1447.08 906.172 1456.93 898.102 C 1457.64 904.999 1460.05 930.473 1457.18 935.604 L 1454.71 935.713 C 1405.38 923.567 1354.55 917.165 1304.13 911.52 C 1309.97 901.629 1316.3 891.762 1323.61 882.896 z"/>
<path transform="translate(0,0)" fill="rgb(255,254,254)" d="M 1469.6 1864.16 C 1474.06 1863.84 1476.5 1863.6 1480.18 1866.43 C 1480.94 1870.05 1480.5 1872.2 1478.68 1875.45 C 1449.97 1926.94 1354.14 1979.42 1298.84 1996.49 C 1295.62 1997.16 1292.86 1997.61 1289.56 1997.44 C 1293.79 1992.84 1313.1 1987.13 1320 1983.76 C 1330.26 1978.74 1341.04 1971.41 1350.39 1964.78 C 1365.41 1954.15 1380.26 1941.93 1393.39 1929.04 C 1416.06 1906.79 1438.24 1873.96 1469.6 1864.16 z"/>
<path transform="translate(0,0)" fill="rgb(255,254,254)" d="M 1158.63 1130.29 C 1175.9 1132.84 1193.17 1136.95 1210.35 1140.2 C 1228.5 1143.63 1246.78 1146.3 1264.96 1149.56 C 1257.37 1157.49 1248.83 1164.42 1240.25 1171.22 C 1228.26 1180.3 1212.42 1194.29 1196.4 1193.32 C 1181.06 1192.38 1168.4 1175.12 1159.23 1164.34 C 1158.26 1153.15 1158.53 1141.53 1158.63 1130.29 z"/>
<path transform="translate(0,0)" fill="rgb(139,192,194)" d="M 918.621 1225.11 C 922.72 1221.91 928.753 1220.66 933.663 1219.03 A 3539.43 3539.43 0 0 1 907.385 1351.39 C 903.071 1371.87 900.019 1393.5 893.657 1413.39 C 891.601 1419.82 888.821 1428.36 883.208 1432.47 C 876.881 1437.1 867.42 1436.28 859.937 1436.3 C 869.244 1410.72 875.08 1384.4 881.438 1357.97 C 888.258 1329.63 895.213 1301.37 900.388 1272.67 C 904.665 1274.08 908.879 1275.53 913.288 1276.49 L 914.054 1264.92 C 915.353 1251.27 919.413 1239 918.621 1225.11 z"/>
<path transform="translate(0,0)" fill="rgb(139,192,194)" d="M 1078.06 848.636 C 1080.26 849.591 1081.94 850.421 1083.59 852.206 C 1089 858.091 1093.62 866.96 1097.85 873.8 C 1126.89 920.76 1136.67 964.36 1149.14 1017.12 C 1151.51 1027.17 1157.47 1040.66 1157.25 1050.85 C 1143.26 1045.03 1132.06 1043.94 1117.1 1047.13 C 1115.21 979.551 1103.96 911.276 1078.06 848.636 z"/>
<path transform="translate(0,0)" fill="rgb(80,139,146)" d="M 1374.24 1876.58 C 1380.56 1880.82 1385.58 1890.78 1389.73 1897.22 C 1359.14 1926.74 1331.84 1947.97 1293.53 1966.67 C 1286.44 1970.13 1279.49 1974.32 1271.99 1976.78 L 1270.25 1975.65 C 1261.82 1959.88 1257.22 1941.11 1252.01 1924.06 C 1262.29 1921.48 1272.36 1918.62 1281.93 1913.98 C 1292.86 1908.68 1303.21 1901.9 1314.61 1897.62 C 1331.36 1891.34 1348.79 1890.05 1366.22 1886.89 C 1368.67 1883.24 1371.41 1879.94 1374.24 1876.58 z"/>
<path transform="translate(0,0)" fill="rgb(80,139,146)" d="M 825.12 1881.15 C 838.541 1888.17 852.324 1893.04 866.58 1898.03 L 860.638 1908.7 C 882.103 1924.95 907.937 1933.74 933.146 1942.33 L 938.056 1943.38 C 932.63 1946.3 927.64 1949.18 922.786 1953 L 927.699 1955.98 C 918.358 1964.72 912.115 1972.49 907.85 1984.72 C 906.887 1984.04 905.781 1983.65 904.706 1983.18 C 903.184 1984.36 903.634 1984.53 902.128 1984.39 C 896.002 1983.86 888.033 1979.69 882.422 1977.13 C 853.514 1963.93 821.861 1946.47 802.215 1920.89 C 810.16 1907.81 818.556 1894.99 825.12 1881.15 z"/>
<path transform="translate(0,0)" fill="rgb(0,0,8)" d="M 922.786 1953 L 927.699 1955.98 C 918.358 1964.72 912.115 1972.49 907.85 1984.72 C 906.887 1984.04 905.781 1983.65 904.706 1983.18 C 905.214 1971.1 914.613 1961 922.786 1953 z"/>
<path transform="translate(0,0)" fill="rgb(139,192,194)" d="M 1127.34 1104.72 C 1127.73 1104.82 1127.91 1104.86 1128.34 1105.15 C 1131.12 1107.06 1148.95 1155.31 1151.03 1162.44 C 1155.33 1177.18 1158.39 1192.54 1162.27 1207.42 A 2950.26 2950.26 0 0 0 1193.53 1318.43 C 1187.32 1324.16 1179.98 1328.04 1172.53 1331.89 C 1162.2 1337.48 1151.32 1341.63 1140.33 1345.68 C 1134.05 1292.67 1127.7 1239.52 1122.68 1186.38 C 1120.37 1162 1119.14 1137.56 1116.87 1113.2 L 1127.34 1104.72 z"/>
<path transform="translate(0,0)" fill="rgb(139,192,194)" d="M 890.469 881.843 C 903.134 891.041 915.516 900.385 925.891 912.214 C 956.948 947.621 953.709 981.525 950.851 1025.46 C 929.695 1024.85 908.943 1021.5 888.255 1017.23 C 865.159 1012.01 839.801 1005.76 818.841 994.59 C 835.053 953.859 856.789 910.73 890.469 881.843 z"/>
<path transform="translate(0,0)" fill="rgb(201,135,95)" d="M 1109.49 569.42 C 1116.57 569.192 1123.45 569.599 1130.3 571.575 C 1134.73 572.855 1140.69 575.332 1142.45 580.072 C 1143.98 584.174 1142.74 590.206 1141.39 594.204 C 1138.05 604.099 1131.2 613.219 1124.77 621.302 C 1093.71 660.354 1051.02 682.664 1007.48 704.762 C 1002.65 702.42 997.974 701.035 992.811 699.67 C 988.805 700.586 984.894 701.636 981.264 703.624 C 974.35 707.412 969.204 713.734 967.212 721.379 C 965.1 729.483 966.152 738.802 970.76 745.877 C 976.514 754.712 985.41 757.676 995.124 759.936 C 995.137 765.655 994.811 771.185 994.247 776.873 C 989.4 775.404 984.618 773.716 979.822 772.088 A 150.215 150.215 0 0 1 945.139 750.461 C 925.653 734.024 912.001 713.155 910.1 687.28 C 908.5 665.505 914.581 645.157 929.15 628.729 C 968.312 584.57 1052.85 573.019 1109.49 569.42 z"/>
<path transform="translate(0,0)" fill="rgb(255,254,254)" d="M 853.441 1040.56 C 877.425 1048.33 900.513 1051.99 925.463 1055.14 C 924.009 1086.69 921.608 1118.66 917.972 1150.03 C 909.91 1154.68 902.171 1161.04 896.115 1168.13 C 893.486 1171.2 891.031 1174.02 891.338 1178.22 C 898.124 1178.37 913.098 1162.03 919.667 1157.6 C 924.787 1154.15 930.441 1151.5 935.999 1148.83 C 976.119 1129.6 1017.47 1117.39 1061.17 1109.58 C 1069.95 1091.33 1085.13 1071.93 1102.11 1060.66 C 1113.89 1052.85 1128.59 1049.11 1142.56 1052.25 C 1158.44 1055.81 1167 1067.41 1175.4 1080.15 C 1170.88 1087.67 1167.01 1095.63 1162.97 1103.4 C 1163.37 1098.93 1164.48 1092.65 1163.02 1088.37 C 1162.23 1086.07 1162.11 1085.57 1159.98 1084.55 C 1157.49 1089.36 1157.98 1099.6 1157.39 1105.28 C 1156.81 1109.35 1155.73 1112.55 1153.66 1116.09 C 1151.67 1111.48 1153.94 1106.14 1151.99 1101.32 L 1150.66 1101.21 C 1150.37 1101.46 1150.06 1101.69 1149.79 1101.97 C 1145.36 1106.65 1148.79 1115.86 1147.99 1121.67 C 1147.57 1124.75 1146.43 1125.15 1144.13 1126.93 C 1141.85 1124.17 1141.77 1117.63 1140.78 1113.97 C 1139.39 1108.81 1136.85 1104.09 1134.41 1099.37 C 1139.28 1098.4 1148.66 1099.94 1152.47 1097.79 L 1152.4 1095.71 C 1151.58 1095.02 1151.51 1094.88 1150.35 1094.39 C 1143.97 1091.68 1125.79 1093.12 1119.44 1095.56 C 1117.08 1096.47 1115.86 1097.23 1114.85 1099.53 L 1115.96 1101.05 L 1120.59 1101.46 C 1115.01 1108.05 1102.72 1118.01 1094.8 1121.35 C 1088.22 1124.13 1070.26 1126.04 1068.3 1127.11 C 1067.48 1127.56 1067.03 1128.47 1066.4 1129.15 L 1066.79 1130.58 C 1068.57 1131.44 1070.31 1132.35 1072.04 1133.29 L 1071.36 1134.93 C 1039.26 1159.44 928.435 1224.12 889.947 1220.79 C 880.317 1219.95 869.554 1214.16 863.701 1206.43 C 847.73 1185.34 849.832 1069.22 853.441 1040.56 z"/>
<path transform="translate(0,0)" fill="rgb(139,192,194)" d="M 792.227 1218.58 C 794.996 1220.25 797.751 1222.63 800.24 1224.72 C 816.597 1238.49 870.736 1257.58 893.192 1267.29 C 891.4 1297.58 881.126 1329.31 873.894 1358.73 C 867.579 1384.41 862.444 1411.13 853.293 1435.96 C 846.786 1435.79 840.258 1435.26 833.759 1434.87 C 815.581 1432.6 798.351 1429.64 781.28 1422.61 C 760.71 1414.14 738.317 1400.23 729.527 1378.89 C 733.637 1341.67 769.439 1246.03 792.227 1218.58 z"/>
<path transform="translate(0,0)" fill="rgb(255,254,254)" d="M 1136.39 618.67 C 1146.62 631.217 1152.68 646.336 1157.13 661.783 C 1166.8 695.31 1171.74 733.686 1153.85 765.377 C 1143.84 783.102 1127.86 796.79 1108.01 802.047 C 1086.75 807.676 1062.9 805.823 1043.83 794.636 C 1042.03 796.174 1040.15 797.667 1038.43 799.289 C 1042.22 801.846 1045.96 804.502 1050 806.66 C 1049.9 817.62 1050.94 827.757 1055.38 837.934 C 1060.87 859.112 1063.21 879.369 1059.55 901.098 C 1025.54 879.31 993.022 846.456 951.797 839.265 L 951.213 839.066 L 950.764 838.087 C 956.407 832.229 964.331 827.362 970.905 822.526 C 973.386 820.701 976.575 817.796 979.721 818.266 L 979.436 821.51 L 981.343 822.265 C 989.284 816.502 993.925 808.669 997.395 799.672 C 1001.63 788.704 1006.82 769.306 1001.5 758.192 C 998.681 752.3 992.052 750.45 986.443 748.25 C 981.134 746.168 976.38 744.181 974.168 738.512 C 972.218 733.513 972.827 724.828 975.029 720.066 C 977.325 715.098 982.216 710.307 987.485 708.666 C 995.087 706.3 1002 710.837 1008.56 714.113 C 1018.49 705.072 1034.04 701.1 1046.03 695.199 C 1081.23 677.885 1113.74 650.564 1136.39 618.67 z"/>
<path transform="translate(0,0)" fill="rgb(0,0,8)" d="M 1038.43 799.289 C 1035.04 796.289 1031.62 793.898 1031.28 789.137 L 1033 788.313 C 1037.38 788.879 1040.46 791.994 1043.83 794.636 C 1042.03 796.174 1040.15 797.667 1038.43 799.289 z"/>
<path transform="translate(0,0)" fill="rgb(0,0,8)" d="M 1133.38 678.395 C 1138.17 680.169 1145 681.777 1147.61 686.366 L 1146.15 689.116 C 1144.56 689.818 1142.76 690.592 1140.99 690.517 C 1138.49 690.412 1136.25 689.285 1134.8 687.239 C 1132.77 684.402 1133.07 681.681 1133.38 678.395 z"/>
<path transform="translate(0,0)" fill="rgb(10,1,53)" d="M 1104.23 736.549 C 1107.91 736.918 1112.06 738.175 1114.27 741.398 C 1116.13 744.117 1115.27 746.488 1114.68 749.389 C 1112.99 749.248 1111.19 749.133 1109.55 748.686 C 1106.79 747.934 1105.11 746.405 1103.59 744.032 C 1102.82 740.775 1103.15 739.571 1104.23 736.549 z"/>
<path transform="translate(0,0)" fill="rgb(10,1,53)" d="M 1081.54 679.129 C 1084.65 679.12 1087.38 678.772 1090.05 680.637 L 1090.32 682.456 C 1088.29 685.494 1085.84 686.508 1082.63 688.087 C 1082.1 688.155 1081.58 688.243 1081.05 688.29 C 1077.71 688.588 1075.91 688.216 1073.4 685.998 L 1073.57 683.514 C 1075.76 680.552 1078.09 680.12 1081.54 679.129 z"/>
<path transform="translate(0,0)" fill="rgb(10,1,53)" d="M 1074.97 703.615 C 1076.35 703.762 1077.73 703.91 1079.01 704.463 A 7.15626 7.15626 0 0 1 1083.15 709.504 C 1084.07 713.692 1082.21 717.316 1079.91 720.635 C 1078.52 720.482 1077.23 720.306 1075.94 719.697 C 1073.77 718.671 1072.36 716.896 1071.87 714.536 C 1070.98 710.323 1072.8 707.046 1074.97 703.615 z"/>
<path transform="translate(0,0)" fill="rgb(10,1,53)" d="M 1133.11 710.396 L 1137.38 711.282 C 1139.52 712.901 1140.87 714.175 1141.48 716.913 C 1142.62 722.038 1140.09 727.068 1137.47 731.262 C 1136.02 731.194 1134.48 730.901 1133.04 730.711 C 1130.87 729.344 1129.62 728.174 1128.99 725.567 C 1127.73 720.355 1130.62 714.74 1133.11 710.396 z"/>
<path transform="translate(0,0)" fill="rgb(10,1,53)" d="M 1061.6 742.238 C 1067.98 743.843 1073.53 752.422 1077.95 757.269 C 1089.12 769.5 1101.14 771.938 1116.66 766.489 C 1120.32 765.203 1124.49 762.93 1128.41 763.117 L 1129.61 764.899 L 1128.83 767.912 C 1122.98 773.541 1116.58 776.676 1108.46 777.486 C 1096.81 778.649 1084.82 774.148 1075.88 766.793 C 1068.03 760.323 1062.76 752.404 1061.6 742.238 z"/>
<path transform="translate(0,0)" fill="rgb(139,192,194)" d="M 1061.88 837.272 C 1074.82 845.33 1090.07 903.53 1093.95 920.253 C 1103.84 962.865 1107.56 1005.54 1111.12 1049 C 1086.67 1061.91 1072.41 1081.23 1056.07 1102.82 C 1042.98 1106.47 1029.42 1108.14 1016.24 1111.47 C 998.472 1115.97 981.344 1122.28 964.089 1128.38 L 973.582 1060.58 C 976.596 1039.02 980.355 1016.5 979.34 994.671 C 975.859 1009.62 974.191 1025.09 971.779 1040.25 C 968.968 1057.93 965.5 1075.5 962.818 1093.19 C 961.123 1104.38 960.74 1117.45 957.789 1128.27 C 957.163 1130.56 955.935 1131.42 953.905 1132.53 C 952.178 1133.48 950.289 1134.22 948.478 1135 A 2064.15 2064.15 0 0 0 955.29 1065.53 C 958.379 1031.21 964.654 988.324 957.011 954.632 C 953.71 940.082 946.699 926.828 937.51 915.148 C 925.603 900.014 911.08 887.86 893.6 879.705 C 902.823 871.527 912.853 864.294 923.878 858.716 C 951.1 881.762 970.308 910.609 987.859 941.247 C 992.792 949.858 998.388 958.834 1001.61 968.243 C 991.386 986.941 981.306 1008.93 987.231 1030.62 C 990.331 1041.98 997.445 1051.4 1007.8 1057.09 C 1017.37 1062.35 1028.42 1063.76 1038.89 1060.46 A 38.0625 38.0625 0 0 0 1061.98 1040.35 C 1067.21 1029.2 1067.09 1015.79 1062.72 1004.4 C 1058.1 992.36 1048.95 983.498 1037.13 978.523 C 1033.04 976.798 1028.71 975.915 1024.4 974.938 C 1012.35 927.149 988.07 874.836 944.019 848.666 A 191.389 191.389 0 0 0 941.079 846.946 C 942.975 844.924 944.635 842.233 947.548 841.804 C 947.81 841.765 948.076 841.856 948.34 841.883 L 951.797 839.265 C 993.022 846.456 1025.54 879.31 1059.55 901.098 C 1063.21 879.369 1060.87 859.112 1055.38 837.934 C 1057.38 837.269 1059.77 837.392 1061.88 837.272 z"/>
<path transform="translate(0,0)" fill="rgb(0,0,8)" d="M 1055.38 837.934 C 1057.38 837.269 1059.77 837.392 1061.88 837.272 C 1066.42 861.424 1069.21 885.054 1062.66 909.235 C 1049.96 902.889 1038.4 893.607 1027.07 885.151 C 1002.36 866.726 978.064 851.177 948.34 841.883 L 951.797 839.265 C 993.022 846.456 1025.54 879.31 1059.55 901.098 C 1063.21 879.369 1060.87 859.112 1055.38 837.934 z"/>
<path transform="translate(0,0)" fill="rgb(242,178,132)" d="M 1287 917.931 C 1322.05 920.646 1356.61 925.57 1391.3 931.125 C 1412.51 934.52 1433.88 937.383 1454.48 943.624 C 1441.16 960.448 1427.51 977.03 1414 993.7 C 1403.03 1007.23 1392.33 1021.32 1379.95 1033.59 C 1378.31 1033.32 1376.66 1033.08 1375 1032.98 C 1363.18 1032.32 1349.3 1040.96 1340.88 1048.87 C 1330.33 1058.79 1321.53 1073.37 1321.54 1088.19 C 1321.55 1100.31 1327.44 1108.02 1335.7 1116.01 C 1332.82 1121.6 1329.24 1126.84 1325.86 1132.14 A 1493.33 1493.33 0 0 0 1314.53 1150.5 C 1262.78 1143.01 1211.24 1131.6 1159.67 1122.64 C 1170.8 1105.37 1180.87 1087.19 1191.72 1069.69 C 1208.49 1042.64 1225.97 1016.03 1242.57 988.887 C 1257 965.309 1270.65 940.16 1287 917.931 z"/>
<path transform="translate(0,0)" fill="rgb(139,192,194)" d="M 1109.77 1118.93 C 1112.06 1121.45 1113.82 1161.09 1114.29 1167.03 C 1119.08 1227.24 1127.15 1287.53 1133.66 1347.62 C 1074.83 1363.55 1011.23 1362.65 952.244 1348.67 A 407.061 407.061 0 0 1 917.654 1338.13 C 926.187 1297.58 932.436 1256.65 940.542 1216.07 A 827.032 827.032 0 0 0 1048.86 1158.14 C 1060.57 1150.66 1071.55 1142.28 1083.12 1134.67 C 1091.81 1128.96 1101.21 1125.09 1109.77 1118.93 z"/>
<path transform="translate(0,0)" fill="rgb(139,192,194)" d="M 944.213 1424.61 C 950.005 1429.58 958.69 1447.53 963.339 1454.92 C 991.602 1499.85 1020.72 1544.24 1046.76 1590.52 C 1041.24 1599.91 1036.84 1610.22 1032.1 1620.04 L 1005.88 1674.42 C 970.39 1747.83 935.192 1820.82 908.932 1898.17 C 890.683 1896.04 873.082 1893.61 855.684 1887.4 C 864.624 1859.36 876.86 1832.05 888.266 1804.93 A 5215.92 5215.92 0 0 1 959.72 1643.67 C 966.394 1629.35 976.572 1612.2 979.966 1596.97 C 961.612 1627.02 946.329 1659.58 931.188 1691.35 A 2122.78 2122.78 0 0 0 849.208 1884.54 C 832.456 1877.11 819.074 1867.95 806.487 1854.65 C 813.504 1835.46 821.585 1816.66 828.987 1797.62 A 5288.56 5288.56 0 0 0 858.522 1717.85 A 2651.07 2651.07 0 0 0 906.461 1566.57 C 920.277 1519.58 934.263 1472.59 944.213 1424.61 z"/>
<path transform="translate(0,0)" fill="rgb(139,192,194)" d="M 915.945 1344.58 C 926.024 1349.26 938.107 1352.27 948.888 1355.06 C 1003.69 1369.23 1057.62 1368.58 1113.18 1359.41 C 1127.7 1404.82 1146.12 1449.22 1161.55 1494.38 A 8324.45 8324.45 0 0 0 1250.96 1748.61 A 6736.64 6736.64 0 0 0 1305.21 1894.84 L 1294.88 1900.51 C 1289.03 1881.82 1281.81 1863.29 1275.05 1844.91 C 1253.28 1785.75 1228.8 1727.74 1205.82 1669.07 A 4709.02 4709.02 0 0 0 1169.31 1576.67 C 1164.92 1566.05 1161.05 1553.39 1154.82 1543.74 C 1158.13 1560.42 1165.48 1577.67 1171.24 1593.67 A 3027.96 3027.96 0 0 0 1207.59 1690.41 A 12842 12842 0 0 1 1289.85 1903.66 C 1259.27 1919.38 1229.53 1923.18 1195.55 1918.66 C 1185.1 1892.72 1176.26 1865.96 1166.17 1839.83 C 1135.09 1759.35 1102.17 1678.6 1061.67 1602.33 C 1043.14 1567.43 1021.89 1534.24 1000.85 1500.84 C 971.052 1453.54 940.806 1406.06 913.628 1357.19 L 915.945 1344.58 z"/>
</svg>