<svg version="1.1" xmlns="http://www.w3.org/2000/svg" style="display: block;" viewBox="0 0 2048 1024" width="2048" height="1024">
<path transform="translate(0,0)" fill="transparent" d="M 0 0 L 2046.25 0 C 2048.75 3.75313 2047.99 9.76244 2047.99 14.1208 L 2048.02 767.612 L 2048.01 954.147 C 2048.01 967.073 2049.66 1011.74 2047.62 1020.8 C 2047.36 1021.98 2046.85 1022.96 2046.25 1024 L 0 1024 L 0 0 z"/>
<path transform="translate(0,0)" fill="rgb(8,134,159)" d="M 904.856 434.863 C 906.145 434.846 907.433 434.822 908.722 434.867 C 912.359 434.997 915.361 436.371 917.82 439.099 C 919.552 441.021 920.187 443.378 919.913 445.926 C 919.49 449.855 916.977 451.768 914.182 454.198 C 909.651 454.335 905.97 454.521 902.342 451.387 C 900.336 449.654 899.202 447.551 899.205 444.865 C 899.211 440.42 901.774 437.698 904.856 434.863 z"/>
<path transform="translate(0,0)" fill="rgb(8,134,159)" d="M 898.194 467.968 C 901.979 467.677 906.023 467.44 909.108 470.089 C 911.604 472.233 912.326 475.412 912.592 478.551 C 913.57 490.053 907.97 505.141 906.264 516.725 C 905.043 525.01 906.405 533.825 904.721 542.022 C 904.292 544.114 902.891 545.826 901.562 547.436 C 900.439 547.4 899.32 547.355 898.201 547.238 C 894.721 546.877 891.96 545.352 889.833 542.583 C 882.735 533.338 885.592 514.336 886.824 503.522 C 888.033 492.905 889.326 475.038 898.194 467.968 z"/>
<path transform="translate(0,0)" fill="rgb(8,134,159)" d="M 1128.35 417.49 C 1131.04 417.05 1133.33 416.7 1135.97 417.664 C 1139.8 419.067 1142.46 421.619 1142.79 425.856 C 1143.37 433.1 1138.77 443.537 1136.72 450.526 C 1131.22 469.297 1122.91 504.522 1128.77 523.492 C 1130.76 529.934 1140.92 529.923 1143.64 536.102 C 1144.52 538.101 1144.05 538.75 1143.38 540.697 C 1141 542.755 1139 544.282 1136.07 545.499 C 1135.96 545.618 1135.86 545.748 1135.73 545.856 C 1133.73 547.623 1130.02 548.449 1127.38 548.194 C 1123.86 547.854 1121.04 545.956 1118.76 543.35 C 1107.53 530.524 1109.2 504.998 1110.18 489.262 C 1111.33 470.815 1114.79 429.467 1128.35 417.49 z"/>
<path transform="translate(0,0)" fill="rgb(8,134,159)" d="M 1527.75 459.498 C 1530.96 458.878 1534.52 458.667 1537.41 460.5 C 1539.31 461.701 1540.52 463.622 1540.99 465.801 C 1541.93 470.217 1539.91 475.021 1537.62 478.685 C 1543.66 475.318 1547.89 469.533 1554.15 466.426 C 1557.59 464.716 1561.18 464.127 1564.88 465.419 C 1569.13 466.903 1573.26 470.534 1575.14 474.613 C 1575.18 476.2 1575.41 477.189 1574.59 478.601 C 1570.39 485.802 1557.34 486.61 1551.23 492.647 C 1545.25 498.545 1544.09 507.906 1539.14 514.502 C 1539.2 514.687 1539.27 514.869 1539.31 515.058 C 1540.54 520.796 1540.13 543.603 1537.43 548.03 C 1534.88 549.923 1533.28 550.984 1530.03 551.333 C 1527.79 550.908 1526.27 550.14 1524.77 548.384 C 1513.7 535.498 1516.52 505.609 1517.83 489.855 C 1518.7 479.506 1519.32 466.617 1527.75 459.498 z"/>
<path transform="translate(0,0)" fill="rgb(8,134,159)" d="M 678.752 416.677 C 682.693 416.706 686.714 417.055 689.807 419.784 C 692.155 421.854 692.801 424.936 692.658 427.932 C 692.289 435.694 688.942 444.53 687.15 452.184 C 682.684 471.253 679.286 490.677 679.59 510.336 C 679.902 530.557 682.887 521.352 691.084 531.464 C 692.23 532.878 692.531 534.052 692.484 535.81 C 692.352 540.792 689.472 543.588 685.989 546.777 C 683.444 547.75 680.937 548.733 678.171 548.7 C 674.726 548.659 671.62 547.207 669.257 544.723 C 660.211 535.216 660.765 515.042 660.994 502.775 C 661.374 482.495 664.416 430.528 678.752 416.677 z"/>
<path transform="translate(0,0)" fill="rgb(8,134,159)" d="M 716.982 416.706 C 720.766 416.481 724.578 416.821 727.761 419.077 C 730.805 421.235 731.535 424.648 731.352 428.16 C 730.943 435.999 727.105 445.063 724.989 452.673 C 720.529 468.709 712.181 504.239 715.581 520.579 C 716.429 524.658 717.895 527.65 721.501 529.941 C 722.686 530.695 723.832 531.497 724.993 532.286 C 725.721 533.552 726.49 534.883 726.661 536.358 C 727.173 540.765 724.131 543.973 721.514 547.081 C 719.015 548.164 715.903 549.159 713.17 549.197 C 709.345 549.25 705.824 547.916 703.141 545.165 C 694.973 536.79 696.302 521.837 696.6 511.07 C 697.222 488.641 701.331 431.53 716.982 416.706 z"/>
<path transform="translate(0,0)" fill="rgb(8,134,159)" d="M 1379.23 462.498 C 1387 461.121 1396.57 461.603 1403.33 466.098 C 1406.56 468.244 1409.33 471.635 1410.05 475.519 C 1410.76 479.372 1409.65 484.036 1407.31 487.176 C 1405.58 489.502 1403.29 490.939 1400.38 491.229 C 1391.92 492.074 1393.32 484.499 1388.47 480.427 C 1386.49 479.744 1384.71 479.134 1382.64 479.858 C 1379.86 480.832 1378.61 482.881 1377.47 485.44 C 1376.51 496.145 1401.26 506.114 1407.48 515.166 C 1410.04 518.89 1410.75 522.579 1409.96 526.981 C 1410.04 527.261 1410.12 527.537 1410.19 527.819 C 1410.97 531.288 1408.97 535.899 1406.96 538.684 C 1402.3 545.165 1394.76 547.927 1387.19 549.126 C 1387.13 549.152 1387.08 549.181 1387.01 549.203 C 1379.01 551.992 1366.15 550.02 1358.67 546.81 C 1354.93 545.204 1350.59 542.662 1349.23 538.555 C 1348.49 536.342 1348.77 534.283 1349.75 532.205 C 1351.12 529.312 1354 527.252 1357.02 526.398 C 1360.62 525.385 1362.55 526.68 1365.56 528.251 C 1370.16 530.654 1377.46 532.54 1382.53 530.725 C 1385.08 529.814 1385.63 528.686 1386.75 526.428 C 1386.05 516.908 1365.96 507.776 1359.95 494.299 C 1357.94 489.791 1357.32 484.824 1359.15 480.15 C 1362.48 471.644 1371.2 465.981 1379.23 462.498 z"/>
<path transform="translate(0,0)" fill="rgb(8,134,159)" d="M 1438.5 416.498 C 1441.37 416.113 1444.32 415.943 1447.06 417.081 C 1449.57 418.125 1451.56 420.02 1452.39 422.647 C 1453.62 426.552 1451.63 431.301 1449.8 434.7 C 1459.32 434.885 1467.4 432.927 1475.62 439.248 C 1478.19 441.224 1478.93 442.967 1479.35 446.095 C 1478.96 447.026 1478.52 447.858 1477.84 448.617 C 1472.39 454.692 1452.2 452.966 1444.02 453.178 C 1446.56 458.394 1437.66 508.283 1438.66 519.451 C 1439.82 532.434 1450 532.526 1451.72 540.404 C 1450.79 543.214 1449.57 544.5 1447.44 546.406 L 1447.04 547.383 C 1445.93 548.256 1444.91 548.819 1443.51 549.119 C 1439.14 550.05 1433.42 548.676 1429.78 546.166 C 1412.22 534.063 1419 493.019 1421.53 475.126 C 1422.32 469.557 1424.73 461.004 1423.53 455.585 C 1423.49 455.414 1423.44 455.246 1423.4 455.076 C 1420.33 455.57 1417.26 456.044 1414.14 455.835 C 1410.86 455.615 1409.52 454.347 1407.5 451.969 C 1406.81 449.191 1406.6 447.533 1407.48 444.691 C 1411.74 439.069 1420.5 438.532 1426.86 436.553 C 1432.71 430.608 1430.1 422.332 1438.5 416.498 z"/>
<path transform="translate(0,0)" fill="rgb(8,134,159)" d="M 548.021 463.04 C 550.507 462.752 553.034 462.476 555.54 462.562 C 562.219 462.791 569.498 465.408 574.024 470.492 C 577.452 474.343 578.813 479.2 578.373 484.295 C 577.216 497.697 564.579 512.53 552.001 516.867 C 547.678 518.357 541.151 517.614 537.666 520.579 C 537.48 523.131 538.409 524.713 539.628 526.946 C 540.815 529.12 542.839 531.187 545.312 531.77 C 551.572 533.247 558.59 527.572 563.581 524.515 C 566.446 522.76 569.764 520.251 573.271 521.098 C 575.851 522.708 576.833 524.161 578.196 526.807 L 578.636 527.675 A 71.4133 71.4133 0 0 1 577.557 531.313 C 575.533 537.444 570.703 542.376 564.963 545.223 C 556.668 549.339 545.781 550.291 537.042 547.094 C 529.428 544.309 523.771 538.193 520.495 530.891 C 515.17 519.023 516.877 505.547 521.298 493.688 C 526.325 480.203 534.721 469.129 548.021 463.04 z"/>
<path transform="translate(0,0)" fill="transparent" d="M 557.125 478.653 C 557.412 478.794 557.718 478.903 557.986 479.077 C 560.047 480.419 559.893 481.787 560.047 483.987 C 557.013 491.902 549.618 496.68 542.381 500.392 C 541.729 500.597 540.177 499.542 539.514 499.207 C 543.649 490.253 548.603 483.732 557.125 478.653 z"/>
<path transform="translate(0,0)" fill="rgb(8,134,159)" d="M 1171.45 462.496 C 1171.61 462.467 1171.77 462.437 1171.94 462.41 C 1180.68 460.989 1187.08 461.547 1194.45 466.917 C 1199.09 470.298 1202.31 475.228 1203.14 480.94 C 1203.92 486.264 1202.31 491.25 1200.09 496.031 C 1188.63 520.816 1169.35 514.161 1164.46 520.889 C 1164.72 523.792 1166.45 526.845 1168.49 528.907 C 1180.74 541.284 1189.71 519.829 1200.3 520.534 C 1202.08 520.653 1203.96 522.013 1205.06 523.372 C 1206.8 525.513 1206.67 525.837 1206.41 528.499 C 1206.63 529.313 1206.97 529.996 1206.8 530.836 C 1205.62 536.711 1200.34 540.892 1195.53 543.904 C 1187.24 549.098 1176.92 551.613 1167.25 549.329 C 1159.29 547.448 1152.81 542.384 1148.62 535.414 C 1142.04 524.495 1141.54 510.606 1144.53 498.481 C 1148.43 482.683 1157.64 470.852 1171.45 462.496 z"/>
<path transform="translate(0,0)" fill="transparent"  d="M 1177.1 480.494 C 1177.66 480.406 1178.21 480.316 1178.78 480.303 C 1181.45 480.245 1181.84 480.261 1183.77 481.967 C 1184.26 483.861 1183.98 485.331 1183.13 487.077 C 1180.55 492.366 1175.96 496.702 1170.38 498.514 C 1168.48 499.242 1168.53 499.439 1166.55 498.589 C 1166.56 492.503 1173.34 485 1177.1 480.494 z"/>
<path transform="translate(0,0)" fill="rgb(8,134,159)" d="M 1481.28 460.498 C 1487.57 459.652 1492.34 460.058 1498.05 463 A 24.5187 24.5187 0 0 1 1510.4 477.78 C 1512.83 485.973 1510.39 493.878 1506.31 501.067 C 1496.82 517.751 1486.3 514.35 1470.53 518.828 C 1470.24 521.454 1471.52 524.24 1473.09 526.408 C 1483.63 540.928 1501.58 517.785 1513.09 519.547 C 1514.42 522.877 1513.8 524.111 1512.62 527.5 C 1513.17 528.862 1513.27 530.042 1513.37 531.482 C 1510.7 538.265 1505 542.252 1498.59 545.331 C 1490.23 549.355 1480.22 550.467 1471.44 547.144 C 1463.18 544.022 1456.57 537.222 1452.98 529.235 C 1447.49 517.042 1449.35 501.625 1454.1 489.422 C 1459.34 475.987 1468.07 466.309 1481.28 460.498 z"/>
<path transform="translate(0,0)" fill="transparent"  d="M 1487.29 478.498 C 1488.46 478.617 1489.47 479.022 1490.58 479.403 L 1491.73 481.808 C 1491.39 485.22 1490.47 487.946 1488.66 490.868 C 1485.36 496.184 1482.32 499.458 1476.16 500.848 L 1474.28 500.699 L 1473.46 499.035 C 1475.44 491.247 1480.84 483.235 1487.29 478.498 z"/>
<path transform="translate(0,0)" fill="rgb(8,134,159)" d="M 1314.88 463.498 C 1322.15 462.285 1329.87 463.994 1336.12 467.849 C 1343.96 472.681 1349.29 480.833 1351.39 489.721 C 1354.57 503.183 1351.2 520.288 1343.98 531.99 C 1338.61 540.691 1331.18 546.589 1321.18 548.904 C 1316.48 549.675 1311.98 549.327 1307.55 547.541 C 1298.84 544.032 1293.28 537.393 1289.72 528.838 C 1284.41 516.09 1285.15 501.711 1290.29 489.053 C 1295.19 476.981 1302.82 468.553 1314.88 463.498 z"/>
<path transform="translate(0,0)" fill="transparent"  d="M 1317.84 483.496 C 1319.61 483.157 1321.33 482.82 1323.06 483.519 C 1326.17 484.777 1328.33 487.701 1329.6 490.694 C 1333.08 498.903 1331.51 510.149 1328.27 518.176 C 1325.96 523.884 1323.06 529.01 1317.24 531.503 C 1316.26 531.818 1315.18 531.546 1314.17 531.437 C 1310.27 528.542 1307.53 522.791 1306.4 518.149 C 1303.27 505.286 1311.53 493.739 1317.84 483.496 z"/>
<path transform="translate(0,0)" fill="rgb(8,134,159)" d="M 623.742 462.209 C 628.62 462.611 633.166 463.622 637.427 466.136 C 654.285 476.079 648.165 502.103 651.066 518.231 C 652.289 525.032 656.81 531.25 658.3 537.945 C 658.819 540.278 658.161 541.762 656.95 543.709 C 655.516 546.016 652.688 547.688 650.073 548.257 C 647.37 548.847 644.406 548.414 642.13 546.811 C 633.955 541.053 631.744 533.826 630.149 524.465 L 623.003 534.535 C 617.447 541.168 609.734 548.415 600.841 549.734 C 596.925 550.316 592.934 549.484 589.736 547.106 C 584.219 543.002 581.401 536.184 580.479 529.543 C 578.22 513.273 585.59 493.43 595.242 480.49 C 602.573 470.66 611.469 464.033 623.742 462.209 z"/>
<path transform="translate(0,0)" fill="transparent"  d="M 622 479.89 C 622.674 479.904 623.426 479.881 624.089 480.051 C 626.414 480.649 626.729 481.432 627.883 483.377 C 628.395 494.546 610.536 516.275 603.648 525.153 L 601.226 527.102 L 600.048 526.354 C 599.736 524.173 599.836 522.196 600.203 520.026 C 602.596 505.869 610.148 488.434 622 479.89 z"/>
<path transform="translate(0,0)" fill="rgb(8,134,159)" d="M 785.357 464.702 C 785.799 464.752 786.241 464.803 786.679 464.879 C 789.826 465.425 792.288 466.919 794.093 469.527 C 803.033 482.448 799.518 512.637 796.525 527.349 C 792.89 545.213 785.553 565.653 769.614 576.018 C 759.19 582.797 749.29 585.658 736.801 582.756 C 731.804 581.595 725.941 579.236 723.233 574.574 C 721.542 571.66 721.81 568.922 722.682 565.814 C 729.187 559.62 745.301 564.385 754.57 560.204 C 765.708 555.179 770.056 545.217 773.994 534.476 L 773.562 532.862 C 769.014 535.451 765.655 539.047 760.697 541.18 C 756.491 542.99 752.528 542.487 748.394 540.718 C 741.784 537.891 737.719 531.847 735.29 525.299 C 730.373 512.047 730.831 490.273 737.068 477.473 C 739.199 473.101 742.553 468.993 747.312 467.418 C 749.833 466.583 752.822 466.57 755.164 467.943 C 764.114 473.189 755.688 485.783 753.818 492.405 C 751.813 499.501 750.627 509.153 752.525 516.257 C 753.237 518.921 753.987 519.838 756.284 521.237 C 757.244 521.072 758.175 520.813 759.008 520.283 C 761.674 518.584 763.717 514.827 765.414 512.227 C 777.985 492.964 770.754 489.151 776.219 473.1 C 777.788 468.492 781.186 466.643 785.357 464.702 z"/>
<path transform="translate(0,0)" fill="rgb(8,134,159)" d="M 855.764 416.32 C 860.692 415.607 866.576 416.204 871.307 417.719 C 878.418 419.994 884.134 424.591 887.471 431.309 C 889.718 435.834 890.618 441.106 888.852 445.961 C 887.762 448.955 885.695 451.59 882.677 452.815 C 880.7 453.617 878.783 453.556 876.842 452.67 C 871.925 450.428 870.456 444.274 868.567 439.678 C 864.195 436.51 860.189 436.49 854.922 437.383 C 845.041 439.058 834.688 444.854 828.922 453.182 C 825.725 457.799 824.193 463.291 825.33 468.858 C 828.249 483.142 851.088 492.505 862.342 499.95 C 869.75 504.851 877.629 510.772 879.348 520.056 C 880.331 525.366 878.96 530.368 875.828 534.713 C 869.163 543.959 857.81 548.137 846.996 549.918 A 98.0691 98.0691 0 0 1 843.385 550.47 C 832.52 551.907 816.287 550.979 807.516 543.941 C 805.039 541.953 803.118 539.14 802.88 535.894 C 802.646 532.707 803.811 527.73 806.116 525.414 C 812.161 519.341 822.357 531.536 831.74 531.512 C 838.923 531.494 850.074 530.138 855.303 524.883 C 855.576 524.054 856.157 522.947 855.986 522.093 C 854.161 512.985 829.948 503.259 822.268 497.693 C 813.093 491.043 803.742 481.417 802.041 469.787 C 800.475 459.079 805.509 447.776 811.868 439.432 C 822.502 425.478 838.859 418.686 855.764 416.32 z"/>
<path transform="translate(0,0)" fill="rgb(8,134,159)" d="M 1075.38 461.484 C 1079.93 460.685 1083.74 460.905 1087.92 462.954 C 1094.59 466.223 1098.74 472.306 1101.1 479.19 C 1106.04 493.562 1103.61 511.489 1096.85 524.935 C 1092.45 533.684 1085.54 541.874 1075.9 544.887 C 1065.67 548.089 1059.25 544.031 1050.45 539.354 C 1051.03 540.295 1059.92 567.6 1060.02 568.609 C 1060.25 571.018 1058.89 571.851 1057.39 573.482 C 1057.33 573.72 1057.32 573.972 1057.23 574.196 C 1056.25 576.477 1052.39 577.94 1050.06 578.225 C 1047.95 578.485 1045.77 577.676 1044.08 576.448 C 1035.73 570.388 1030.9 554.767 1029.17 544.925 C 1025.38 523.455 1024.38 492.521 1037.78 473.84 C 1040.18 470.493 1045.49 465.043 1049.89 464.708 C 1054 464.395 1058.67 468.704 1061.71 471.083 C 1064.89 470.46 1071.97 463.435 1075.38 461.484 z"/>
<path transform="translate(0,0)" fill="transparent"  d="M 1077.09 483.474 C 1077.99 483.379 1078.86 483.21 1079.74 483.516 C 1081.22 484.031 1081.46 484.766 1082.06 486.143 C 1085.13 493.107 1081.15 508.565 1078.3 515.406 C 1076.83 518.91 1074.1 524.306 1070.26 525.691 C 1067.78 526.586 1066.36 525.479 1064.11 524.522 C 1062.96 520.949 1058.73 518.46 1055.67 516.705 C 1060.78 511.988 1069.92 492.102 1077.09 483.474 z"/>
<path transform="translate(0,0)" fill="rgb(8,134,159)" d="M 960.307 462.752 C 964.438 462.911 968.314 463.705 971.752 466.103 C 978.785 471.008 980.453 479.864 981.89 487.733 A 86.0379 86.0379 0 0 1 988.162 477.865 C 992.339 472.162 999.095 465.375 1006.46 464.389 C 1009.63 463.966 1012.46 464.827 1014.92 466.839 C 1019.89 470.904 1022.27 477.712 1022.87 483.911 C 1024.12 496.964 1019.6 508.818 1018.55 521.626 C 1017.89 529.703 1019.17 538.07 1018.38 545.955 C 1018.14 548.375 1017.39 549.173 1015.91 550.979 C 1013.99 551.826 1012.33 552.366 1010.22 552.356 C 1007.35 552.341 1005 551.422 1003.03 549.27 C 993.444 538.821 999.699 508.323 1000.02 494.637 C 993.219 504.033 988.566 513.975 984.022 524.613 C 983.47 526.258 982.89 527.944 981.921 529.397 C 980.109 532.112 977.306 533.945 974.041 534.377 C 971.557 534.707 968.876 533.983 966.959 532.343 C 958.267 524.907 958.231 504.095 957.248 493.137 C 951.065 503.064 944.999 515.792 942.649 527.301 C 941.646 532.213 941.758 537.607 940.311 542.381 C 939.652 544.553 938.66 545.968 937.008 547.525 C 935.322 548.292 933.835 548.862 931.946 548.616 C 928.816 548.208 926.637 546.235 924.941 543.723 C 916.281 530.898 917.898 494.172 920.755 479.362 C 921.833 473.773 922.937 469.577 927.802 466.296 C 930.096 465.965 931.301 465.769 933.333 467.203 C 938.877 471.115 940.323 475.991 941.513 482.31 C 946.535 473.603 951.19 467.432 960.307 462.752 z"/>
<path transform="translate(0,0)" fill="rgb(8,134,159)" d="M 474.216 500.954 C 488.015 517.774 498.615 537.163 513.759 552.915 C 519.517 558.904 528.925 560.495 534.449 566.68 C 535.204 568.787 535.582 570.503 534.862 572.696 C 533.742 576.111 530.667 578.962 527.503 580.507 C 500.939 593.473 469.989 518.157 457.637 514.192 L 456.082 515.509 C 453.427 521.163 455.571 527.44 456.713 533.255 C 457.661 538.079 460.157 546.616 456.892 550.984 C 455.491 552.859 453.305 553.869 450.977 554.044 C 447.499 554.305 443.978 552.687 441.425 550.411 C 432.972 542.881 431.401 524.675 430.811 513.968 C 429.414 488.595 431.442 457.097 449.368 437.265 C 460.471 424.983 476.404 417.053 493.014 416.379 C 503.254 415.963 514.305 418.564 521.972 425.718 C 526.345 429.798 529.01 435.055 529.185 441.084 C 529.514 452.376 521.745 459.755 514.58 467.381 A 2563.89 2563.89 0 0 1 487.971 489.665 C 483.205 493.18 478.742 497.136 474.216 500.954 z"/>
<path transform="translate(0,0)" fill="transparent"  d="M 492.787 436.413 C 497.025 436.111 501.918 435.93 505.649 438.2 C 506.831 439.906 507.393 440.322 507.035 442.498 C 505.442 452.179 472.763 475.061 464.597 481.446 L 454.636 489.081 C 455.263 477.612 457.817 466.645 464.078 456.859 C 470.968 446.09 480.347 439.194 492.787 436.413 z"/>
<path transform="translate(0,0)" fill="rgb(8,134,159)" d="M 1259.26 417.497 C 1269 416.317 1279.59 415.761 1289.12 418.516 C 1294.95 420.2 1300.55 423.327 1303.43 428.897 C 1306.5 434.861 1306.18 442.379 1304.09 448.594 C 1297.55 468.133 1270.84 490.39 1253.14 499.463 C 1260.81 503.519 1279.37 537.754 1286.34 547.549 C 1293.91 558.188 1312.39 563.794 1314.79 569.95 C 1315.74 572.379 1315.07 575.296 1313.83 577.513 C 1312.56 579.781 1310.7 581.181 1308.16 581.726 C 1298.51 583.794 1287.01 575.676 1279.7 570.502 C 1279.66 570.341 1279.65 570.174 1279.6 570.018 C 1278.28 565.913 1270.11 558.276 1267.25 554.597 C 1261.6 547.352 1243.46 518.47 1237.88 515.037 L 1235.62 515.715 C 1225.57 524.464 1237.62 542.426 1233.33 552.852 C 1232.28 555.407 1231.39 555.704 1229.01 556.677 C 1226.06 556.461 1223.84 555.721 1221.24 554.308 C 1215.83 551.368 1213.25 546.526 1211.66 540.724 C 1204.32 513.924 1209.27 466.679 1223.38 442.438 C 1231.47 428.527 1244.21 421.431 1259.26 417.497 z"/>
<path transform="translate(0,0)" fill="transparent"  d="M 1266.23 437.499 C 1269.18 437.302 1272.2 437.033 1275.15 437.085 C 1277.98 437.135 1279.83 437.797 1281.87 439.832 C 1282.42 442.208 1282.55 443.279 1281.63 445.601 C 1278.08 454.463 1252.58 475.847 1243.28 479.911 C 1241.87 482.877 1236.5 485.547 1233.55 486.837 C 1235.89 476.151 1237.99 464.308 1243.36 454.667 C 1248.65 445.166 1256 440.469 1266.23 437.499 z"/>
<path transform="translate(0,0)" fill="rgb(4,0,0)" d="M 193.503 165.646 C 180.891 168.136 170.284 168.279 159.085 160.926 C 149.941 154.922 143.591 144.608 141.581 133.936 A 40.3943 40.3943 0 0 1 148.37 102.734 A 42.2111 42.2111 0 0 1 176.299 85.4471 C 186.059 83.8642 196.204 85.8645 204.241 91.7398 C 211.503 97.0485 215.039 102.923 216.725 111.58 C 221.572 110.613 227.162 102.905 231.693 100.37 C 259.886 84.5954 293.961 92.6777 319.374 109.655 C 324.84 113.307 329.896 117.527 335.319 121.233 C 342.15 125.901 358.056 132.018 360.11 140.564 C 361.167 144.964 358.856 149.433 356.429 152.945 C 351.271 160.41 344.367 167.497 337.63 173.543 C 335.468 182.398 329.776 191.591 328.948 200.386 C 328.414 206.061 334.519 211.041 332.461 216.358 C 331.749 218.2 331.231 218.877 329.565 219.921 C 327.636 221.129 325.257 221.106 323.47 222.639 C 310.521 233.751 313.332 250.152 290.321 243.808 A 237.543 237.543 0 0 1 281.705 241.189 C 280.561 247.559 279.493 253.944 277.942 260.23 C 300.699 274.937 322.197 288.827 328.33 317.088 C 329.793 323.833 330.073 330.582 329.927 337.47 C 338.062 343.311 343.785 349.391 349.451 357.633 C 358.751 350.68 395.261 326.129 399.863 317.549 L 398.984 316.364 C 397.429 317.291 395.889 318.145 394.542 319.364 L 394.575 318.14 L 393.942 319.716 C 388.433 318.719 364.374 302.382 361.125 297.849 C 360.272 296.66 359.791 295.237 359.384 293.846 C 359.913 291.228 360.036 291.274 362.198 289.665 C 371.983 288.173 394.867 306.071 404.388 311.85 L 445.152 257.104 C 451.251 259.078 457.314 261.023 463.234 263.498 C 464.27 259.928 465.028 255.638 467.839 253.042 C 470.941 251.53 473.299 252.306 476.366 253.363 A 215.92 215.92 0 0 1 482.534 255.619 L 489.537 249.315 C 496.832 248.918 511.154 246.127 517.035 251.266 C 522.627 256.152 523.436 267.632 524.795 274.504 C 535.08 277.91 545.741 280.934 555.731 285.117 A 10550.7 10550.7 0 0 0 464.827 387.631 C 457.14 396.452 438.297 415.804 433.749 425.085 C 432.652 426.274 431.494 427.7 430.055 428.471 C 425.313 431.011 415.275 426.077 410.148 424.602 C 401.951 420.831 393.246 418.461 384.972 414.91 C 366.707 427.409 348.466 438.672 329.075 449.345 A 1852.34 1852.34 0 0 0 362.921 515.449 C 372.176 533.013 381.839 550.419 389.195 568.889 C 381.859 577.716 373.698 583.207 363.315 587.902 C 368.819 604.661 374.542 621.42 378.958 638.506 C 402.33 728.94 402.833 821.301 393.322 913.74 C 391.844 923.005 390.87 932.749 388.51 941.818 C 400.233 945.407 445.73 956.683 451.031 966.372 C 452.492 969.043 452.05 971.584 451.163 974.416 C 451.108 974.59 451.049 974.763 450.992 974.936 C 446.075 976.442 440.979 977.558 435.91 978.418 C 418.157 981.431 344.889 987.916 331.677 978.143 C 320.057 969.547 333.841 954.34 334.929 944.513 C 335.623 938.253 333.431 930.144 332.456 923.889 A 1230.4 1230.4 0 0 0 322.697 865.849 C 320.836 849.609 316.568 833.031 313.339 816.986 C 299.147 858.874 275.932 898.197 254.318 936.595 C 266.705 939.855 306.134 950.163 313.151 959.194 C 314.907 961.453 314.733 962.258 314.433 964.935 C 313.717 966.049 312.916 967.171 311.793 967.909 C 299.402 976.059 216.508 978.572 202.845 975.368 C 198.815 974.422 195.499 971.398 193.469 967.861 C 188.052 958.426 197.692 940.454 200.547 930.517 C 221.29 858.315 251.163 760.779 228.652 686.984 C 222.681 667.409 211.658 649.563 201.788 631.749 C 192.483 632.946 177.736 634.714 169.024 630.966 C 166.75 628.977 165.978 626.907 165.539 624.012 C 158.797 579.566 177.312 496.233 203.984 459.453 C 202.838 454.931 202.151 450.356 201.434 445.753 A 87.7794 87.7794 0 0 1 195.97 441.693 C 178.622 427.584 187.004 409.363 188.446 391.037 C 188.951 384.617 188.083 378.076 187.439 371.689 C 184.919 381.882 182.262 391.229 177.096 400.426 C 162.15 400.347 146.194 397.394 132.056 392.611 C 136.918 389.038 142.085 385.52 146.19 381.067 C 168.222 357.165 172.964 319.144 185.074 289.764 C 188.921 280.431 198.434 268.29 200.885 260.537 C 198.953 259.091 197.204 257.621 195.464 255.945 L 195.522 253.648 C 199.043 248.889 206.16 245.502 210.841 241.72 C 214.861 239.655 218.574 238.773 222.741 237.271 C 224.019 236.81 225.331 235.631 225.895 234.39 C 227.593 230.653 228.796 222.482 227.334 218.616 L 224.547 217.593 C 208.676 206.012 197.781 194.07 194.619 173.949 A 229.968 229.968 0 0 1 193.503 165.646 z"/>
<path transform="translate(0,0)" fill="transparent"  d="M 399.051 405.878 C 405.986 407.636 424.964 414.117 429.105 419.51 C 428.3 421.852 427.934 421.756 425.716 422.958 L 392.004 410.88 L 399.051 405.878 z"/>
<path transform="translate(0,0)" fill="rgb(61,176,181)" d="M 326.548 381.042 L 336.995 391.328 L 322.733 406.042 C 318.436 401.69 314.282 397.175 310.065 392.744 L 326.548 381.042 z"/>
<path transform="translate(0,0)" fill="transparent"  d="M 379.109 343.107 C 379.328 343.876 379.354 343.561 379.092 344.356 C 378.492 346.177 342.841 383.351 339.786 384.768 L 337.915 383.416 C 336.421 381.842 335.157 380.111 333.855 378.38 C 334.767 373.846 372.795 347.732 379.109 343.107 z"/>
<path transform="translate(0,0)" fill="rgb(61,176,181)" d="M 316.633 334.682 C 327.299 343.012 336.798 350.43 345.972 360.559 L 340.163 364.913 L 326.664 374.056 C 322.927 360.983 322.863 347.047 316.633 334.682 z"/>
<path transform="translate(0,0)" fill="rgb(8,134,159)" d="M 470.606 257.523 C 473.74 257.866 476.803 259.355 480.017 259.756 C 485.321 260.416 490.736 260.027 496.046 260.658 C 501.215 261.272 506.809 262.676 510.021 267.149 C 513.111 271.452 511.965 276.942 511.265 281.788 C 507.442 282.831 475.96 268.703 469.613 265.927 C 468.698 263.408 470.009 260.071 470.606 257.523 z"/>
<path transform="translate(0,0)" fill="transparent"  d="M 516.468 277.855 C 526.431 280.883 536.283 284.027 546.082 287.564 A 5476.76 5476.76 0 0 1 483.025 357.66 C 481.061 360.047 478.898 362.252 476.768 364.491 L 476.015 364.503 C 485.936 349.787 526.391 304.043 530.265 291.526 C 528.524 287.128 521.625 286.953 517.871 284.481 C 516.232 281.813 516.39 280.88 516.468 277.855 z"/>
<path transform="translate(0,0)" fill="rgb(61,176,181)" d="M 267.123 284.35 C 283.061 294.267 302.836 310.216 308.969 328.837 C 314.281 340.61 316.745 352.485 319.218 365.069 C 311.286 351.921 300.533 339.978 293.847 326.167 C 287.913 321.281 277.418 302.137 270.213 294.149 C 272.234 294.565 273.188 294.659 275.097 293.821 C 273.586 289.541 268.513 288.745 267.123 284.35 z"/>
<path transform="translate(0,0)" fill="rgb(61,176,181)" d="M 208.118 260.622 C 228.75 266.293 249.15 272.314 267.123 284.35 C 268.513 288.745 273.586 289.541 275.097 293.821 C 273.188 294.659 272.234 294.565 270.213 294.149 C 257.579 283.434 244.287 276.132 227.029 277.61 C 216.017 278.552 205.666 283.236 198.527 291.826 A 47.6677 47.6677 0 0 0 193.484 299.026 C 193.615 297.139 193.876 295.33 193.252 293.505 C 192.02 293.866 191.126 294.135 190.532 295.393 C 188.518 299.66 187.457 305.027 185.971 309.565 C 180.713 325.612 168.122 368.905 157.757 378.693 L 156.717 378.878 C 157.655 373.207 164.412 365.132 166.785 359.22 C 180.47 325.126 186.374 291.265 208.118 260.622 z"/>
<path transform="translate(0,0)" fill="rgb(8,134,159)" d="M 156.717 378.878 L 157.757 378.693 C 168.122 368.905 180.713 325.612 185.971 309.565 C 187.457 305.027 188.518 299.66 190.532 295.393 C 191.126 294.135 192.02 293.866 193.252 293.505 C 193.876 295.33 193.615 297.139 193.484 299.026 C 190.209 309.848 190.325 319.823 189.112 330.963 C 186.874 351.529 183.035 376.878 174.189 395.501 C 164.505 394.094 154.592 392.881 145.072 390.624 C 149.048 386.887 152.644 382.396 156.717 378.878 z"/>
<path transform="translate(0,0)" fill="rgb(8,134,159)" d="M 219.405 242.715 C 242.378 243.584 288.658 270.858 305.796 286.886 C 319.674 299.867 323.513 316.866 324.091 335.131 L 314.831 325.715 C 311.368 322.158 308.716 316.957 306.062 312.768 C 300.635 304.201 293.383 297.437 285.563 291.041 C 260.307 270.384 233.421 261.48 202.137 254.42 A 1398.82 1398.82 0 0 1 219.405 242.715 z"/>
<path transform="translate(0,0)" fill="rgb(8,134,159)" d="M 205.766 934.574 C 241.513 939.531 278.773 945.281 310.497 963.651 C 305.95 964.943 301.252 965.824 296.634 966.835 C 280.046 969.824 220.2 973.009 205.145 969.216 C 202.57 968.567 199.512 967.298 198.248 964.827 C 195.119 958.708 203.409 941.012 205.766 934.574 z"/>
<path transform="translate(0,0)" fill="rgb(8,134,159)" d="M 341.274 943.444 C 353.302 944.03 365.74 944.064 377.663 945.738 C 394.515 948.105 428.951 958.698 443.921 966.812 C 445.641 967.744 446.225 967.836 446.803 969.797 C 444.612 971.937 440.877 972.197 437.958 972.818 C 420.159 975.822 353.818 980.393 338.989 975.916 C 337.417 975.441 335.556 974.771 334.81 973.241 C 331.152 965.735 338.515 950.9 341.274 943.444 z"/>
<path transform="translate(0,0)" fill="rgb(61,176,181)" d="M 192.085 338.655 C 195.878 341.641 218.257 398.395 222.694 407.847 C 225.608 414.053 228.926 419.914 232.589 425.706 C 241.174 423.93 249.457 420.656 257.706 417.731 C 264.691 426.108 271.547 434.298 279.386 441.91 C 267.645 445.906 252.362 446.428 240.037 446.094 C 226.45 445.726 206.244 445.098 196.394 434.415 C 192.583 430.281 190.959 425.566 190.43 420.038 C 189.566 411.008 193.632 402.232 193.945 393.277 C 194.244 384.685 192.752 375.527 192.168 366.923 C 191.53 357.518 191.743 348.068 192.085 338.655 z"/>
<path transform="translate(0,0)" fill="rgb(64,60,61)" d="M 178.045 91.1351 C 184.49 90.0543 192.141 91.1561 197.808 94.4786 C 206.734 99.7117 209.703 107.998 212.205 117.381 C 202.933 131.559 197.55 143.206 194.592 159.887 C 190.127 160.787 185.845 161.191 181.296 161.376 C 174.226 161.177 168.591 159.975 162.64 155.972 C 154.756 150.67 149.325 142.112 147.507 132.818 A 35.4282 35.4282 0 0 1 153.128 105.854 C 159.186 97.1501 167.847 92.9516 178.045 91.1351 z"/>
<path transform="translate(0,0)" fill="rgb(4,0,0)" d="M 168.75 105.271 C 173.716 107.624 173.979 112.273 176.92 116.662 C 180.983 122.725 188.281 120.307 194.289 121.459 L 195.763 123.769 C 192.337 125.355 189.274 126.046 185.473 125.917 C 180.767 125.758 176.084 123.95 172.945 120.355 C 168.937 115.765 168.399 111.139 168.75 105.271 z"/>
<path transform="translate(0,0)" fill="rgb(4,0,0)" d="M 152.963 122.367 C 158.395 123.617 160.238 134.787 164.571 138.798 C 169.508 143.369 177.79 142.398 183.574 145.126 L 183.661 148.143 C 180.711 148.748 177.469 149.037 174.493 148.501 C 167.524 147.246 160.337 143.075 156.319 137.17 C 153.143 132.503 151.85 127.904 152.963 122.367 z"/>
<path transform="translate(0,0)" fill="rgb(172,131,105)" d="M 425.744 339.861 C 426.391 341.928 424.945 344.922 425.267 347.362 C 425.68 350.497 435.663 354.659 438.294 356.842 A 9.75329 9.75329 0 0 1 441.805 363.801 C 442.094 369.783 440.016 374.333 435.926 378.596 C 427.93 386.927 418.147 386.052 408.868 391.631 C 385.833 405.48 330.326 451.136 304.368 451.122 C 293.995 451.116 287.509 442.54 280.8 435.808 C 274.627 429.681 268.777 423.202 263.773 416.081 A 362.651 362.651 0 0 0 305.159 395.31 C 310.842 401.367 316.578 407.542 323.427 412.29 C 347.044 399.694 373.435 392.956 396.534 379.403 C 400.185 373.345 399.825 362.942 403.272 358.757 C 404.759 356.953 408.08 357.708 410.279 357.338 C 414.27 356.667 423.09 343.27 425.744 339.861 z"/>
<path transform="translate(0,0)" fill="rgb(172,131,105)" d="M 329.732 144.896 C 329.956 145.184 330.299 145.59 330.483 145.932 C 338.61 160.994 329.091 179.563 325.102 194.126 C 322.609 203.224 323.797 207.213 328.262 215.134 C 319.207 217.854 321.83 218.994 315.758 223.915 C 311.38 223.742 308.303 219.619 304.193 218.749 C 302.589 218.409 302.292 218.759 301.028 219.699 C 301.074 219.98 301.104 220.265 301.167 220.544 C 302.096 224.669 308.106 227.426 311.497 229.196 C 310.032 231.539 308.437 235.059 306.338 236.813 C 294.39 246.796 278.396 227.404 269.195 229.949 C 269.803 233.49 274.203 236.245 276.846 238.272 C 275.789 244.998 274.363 251.443 272.558 258.007 C 266.153 254.069 259.094 250.998 252.328 247.721 C 245.031 244.486 237.767 240.989 229.969 239.141 C 231.605 232.155 232.678 225.396 233.418 218.256 C 240.229 213.425 250.888 209.682 255.466 202.438 L 254.74 202.418 C 250.985 202.288 247.253 201.903 244.658 198.784 C 242.007 195.598 241.383 189.863 241.906 185.891 C 242.439 181.839 244.966 177.895 248.216 175.486 C 251.233 173.249 253.563 172.49 257.238 173.045 C 260.118 175.257 260.614 177.756 261.993 180.927 C 263.009 183.264 263.363 184.64 265.827 185.56 C 297.642 178.321 309.459 171.024 329.732 144.896 z"/>
<path transform="translate(0,0)" fill="rgb(4,0,0)" d="M 312.85 174.934 C 316.052 174.988 319.442 174.686 322.305 176.325 L 322.472 177.838 L 319.64 180.315 C 316.909 180.975 314.133 181.984 311.427 180.787 C 310.958 178.083 311.66 177.311 312.85 174.934 z"/>
<path transform="translate(0,0)" fill="rgb(4,0,0)" d="M 301.197 184.681 L 304.95 185.046 C 308.52 187.603 315.184 190.572 316.508 194.594 A 88.8307 88.8307 0 0 1 315.445 194.739 C 311.697 195.222 307.513 195.584 304.421 192.903 C 301.903 190.721 301.524 187.773 301.197 184.681 z"/>
<path transform="translate(0,0)" fill="transparent"  d="M 447.632 263.813 C 471.212 270.979 499.807 284.284 523.784 293.343 C 515.045 303.841 507.061 315.105 498.625 325.863 L 429.434 414.683 C 420.593 410.602 411.394 407.161 402.367 403.508 C 418.575 390.722 434.563 392.689 446.203 372.956 C 447.09 368.746 447.48 364.693 446.245 360.494 C 443.995 352.844 437.971 348.494 431.358 344.765 C 431.819 341.255 432.889 335.616 430.932 332.438 C 430.156 331.177 429.407 331.32 428.04 331.021 C 418.425 333.785 415.668 348.598 408.703 351.479 C 404.114 353.377 400.375 351.988 397.217 357.023 C 394.005 362.146 396.799 369.357 392.6 374.266 C 388.567 378.98 361.712 391.141 355.291 391.592 C 353.664 387.318 352.673 389.696 350.383 387.011 C 352.46 385.718 354.994 384.381 356.753 382.687 C 364.403 375.319 371.294 364.956 377.944 356.564 C 401.979 326.237 423.842 294.306 447.632 263.813 z"/>
<path transform="translate(0,0)" fill="rgb(4,0,0)" d="M 428.901 308.722 C 435.809 308.835 471.648 321.269 475.911 325.598 C 477.181 326.887 476.784 328.692 476.81 330.424 C 469.797 329.525 434.886 317.274 430.095 313.185 C 428.675 311.973 429.037 310.509 428.901 308.722 z"/>
<path transform="translate(0,0)" fill="rgb(4,0,0)" d="M 438.347 292.682 C 444.674 293.27 488.798 306.985 493.199 310.263 C 495.218 311.767 494.972 313.002 495.307 315.306 C 486.342 315.456 449.279 302.57 439.491 298.393 C 437.87 296.138 438.195 295.355 438.347 292.682 z"/>
<path transform="translate(0,0)" fill="rgb(64,60,61)" d="M 257.047 98.2186 C 257.22 98.1687 257.39 98.1081 257.565 98.0688 C 285.574 91.8053 312.751 112.549 334.065 126.97 C 341.382 131.921 349.142 136.342 356.614 141.076 C 351.584 150.79 345.653 157.989 338.171 165.953 C 338.13 160.689 338.072 155.582 336.83 150.428 C 335.54 145.072 334.62 139.552 329.68 136.55 C 326.863 138.02 326.112 140.413 324.49 143.077 C 314.064 160.204 295.957 172.297 276.753 176.994 C 274.793 177.415 272.494 178.105 270.502 178.146 C 266.825 178.22 266.049 174.104 263.797 171.726 C 261.296 169.084 258.032 167.428 254.347 167.455 C 249.762 167.488 245.348 169.796 242.178 173.012 A 22.881 22.881 0 0 0 235.704 189.474 C 235.922 196.605 238.736 201.132 243.786 205.887 L 229.856 213.269 C 227.072 211.844 224.487 210.136 221.966 208.292 A 53.03 53.03 0 0 1 200.57 173.04 C 198.063 155.87 204.42 138.098 214.573 124.377 C 225.101 110.15 239.43 100.823 257.047 98.2186 z"/>
<path transform="translate(0,0)" fill="rgb(61,176,181)" d="M 227.064 283.152 C 231.522 282.712 235.716 282.605 240.125 283.543 C 249.024 285.436 257.229 290.039 263.995 296.061 C 280.588 310.83 307.808 356.503 321.638 377.31 C 307.11 388.684 292.05 397.124 275.377 404.856 C 262.144 410.894 248.736 415.634 234.769 419.637 C 224.03 400.908 201.877 350.246 197.311 329.842 C 194.915 319.138 195.027 307.641 201.19 298.149 C 207.356 288.652 216.604 285.51 227.064 283.152 z"/>
<path transform="translate(0,0)" fill="rgb(61,176,181)" d="M 218.943 629.324 C 220.028 629.097 220.68 628.866 221.739 629.435 C 229.829 633.78 289.395 723.066 294.986 737.01 C 303.023 757.053 306.868 784.342 311.554 805.627 C 305.994 816.932 302.497 830.05 297.272 841.743 C 285.024 869.154 271.092 895.248 256.481 921.439 C 253.665 926.143 250.521 930.66 247.473 935.215 C 234.408 932.234 220.603 930.961 207.34 928.864 C 212.173 913.378 215.999 897.432 220.175 881.752 C 236.005 822.31 252.408 751.558 236.013 690.563 C 232.061 675.86 225.7 663.265 218.632 649.892 C 215.69 644.326 211.035 637.654 209.482 631.6 C 211.568 629.996 216.303 629.76 218.943 629.324 z"/>
<path transform="translate(0,0)" fill="rgb(61,176,181)" d="M 323.029 452.028 C 323.462 452.119 323.691 452.645 323.954 452.991 L 324.464 452.447 C 329.266 458.073 338.59 480.132 342.55 487.973 C 356.101 514.804 370.507 541.166 383.381 568.341 C 358.549 591.513 277.351 616.746 242.029 621.46 C 221.257 567.062 225.045 532.381 230.856 476.785 C 228.688 480.168 226.939 483.796 225.123 487.375 C 207.916 524.08 205.505 585.218 218.845 623.512 C 203.252 627.514 188.024 627.503 172.05 626.643 C 163.312 573.784 183.144 506.745 208.819 460.963 C 240.632 467.173 292.872 464.731 323.029 452.028 z"/>
<path transform="translate(0,0)" fill="rgb(61,176,181)" d="M 219.639 529.18 C 220.728 536.886 220.38 545.308 220.82 553.137 C 221.98 573.8 225.137 598.435 233.752 617.422 C 235.269 620.765 237.746 625.075 241.48 626.21 C 259.052 631.551 339.825 598.956 357.937 590.403 C 394.39 690.629 398.55 796.75 388.942 902.109 C 386.816 914.777 385.654 927.604 383.442 940.298 C 368.947 939.944 354.535 938.092 339.997 937.935 C 334.991 896.087 326.941 854.779 318.826 813.445 C 313.967 788.691 309.877 762.234 301.66 738.373 C 299.395 731.796 296.072 725.735 292.534 719.77 A 723.484 723.484 0 0 0 253.441 661.732 C 244.57 649.68 233.862 637.435 226.906 624.211 C 215.902 603.292 212.769 551.492 219.639 529.18 z"/>
</svg>